<?xml version="1.0" standalone="no"?>
<!DOCTYPE svg PUBLIC "-//W3C//DTD SVG 20010904//EN"
 "http://www.w3.org/TR/2001/REC-SVG-20010904/DTD/svg10.dtd">
<svg version="1.0" xmlns="http://www.w3.org/2000/svg"
 width="300.000000pt" height="130.000000pt" viewBox="0 0 300.000000 130.000000"
 preserveAspectRatio="xMidYMid meet">
<metadata>
Created by potrace 1.10, written by Peter Selinger 2001-2011
</metadata>
<g transform="translate(0.000000,130.000000) scale(0.100000,-0.100000)"
fill="#000000" stroke="none">
<path d="M1260 1263 c0 -71 25 -67 -430 -68 -286 0 -413 -3 -418 -11 -4 -6
-18 -14 -32 -17 -40 -10 -114 -63 -160 -115 -57 -64 -53 -59 -84 -141 -23 -58
-28 -89 -28 -152 0 -90 8 -131 59 -304 20 -66 36 -124 38 -130 1 -5 8 -22 15
-37 36 -75 94 -19 62 61 -7 18 -11 36 -8 39 10 9 109 -49 142 -83 16 -18 49
-44 72 -59 23 -14 42 -32 42 -39 0 -6 -30 -44 -68 -82 -93 -98 -104 -113 -90
-122 12 -6 35 17 290 289 l100 108 -58 -27 c-52 -24 -71 -28 -154 -27 -64 0
-110 6 -140 18 -65 24 -145 82 -180 129 -17 23 -30 38 -30 35 0 -3 18 -63 39
-132 29 -93 35 -126 25 -126 -7 0 -17 15 -23 32 -55 190 -101 366 -106 410
-21 165 83 346 242 421 l68 32 428 3 427 3 0 64 c0 58 -2 65 -20 65 -16 0 -20
-7 -20 -37z m-785 -944 c17 -11 52 -31 79 -45 33 -18 45 -29 38 -36 -12 -12
-87 26 -142 72 -40 34 -21 41 25 9z"/>
<path d="M2843 1204 c-15 -24 -15 -29 -2 -53 29 -51 109 -33 109 24 0 56 -76
76 -107 29z m91 -23 c3 -5 -2 -15 -11 -22 -15 -12 -16 -12 -10 4 3 9 2 17 -3
17 -6 0 -10 -9 -10 -20 0 -25 -11 -25 -41 -1 l-23 18 22 12 c12 7 22 8 22 2 0
-5 -5 -11 -12 -13 -9 -3 -9 -6 0 -12 7 -4 14 3 18 18 5 21 9 24 24 16 11 -6
21 -14 24 -19z"/>
<path d="M470 1140 c-112 -24 -226 -117 -278 -227 -24 -51 -27 -70 -27 -158 0
-93 2 -105 32 -166 39 -80 111 -150 191 -187 50 -24 69 -27 162 -27 95 0 111
3 167 29 76 35 153 113 191 193 24 51 27 70 27 158 0 92 -3 106 -31 163 -32
64 -30 78 6 40 30 -33 61 -143 140 -498 39 -173 78 -348 87 -387 9 -40 20 -73
26 -73 10 0 4 79 -11 145 -6 22 -18 74 -28 115 -20 86 -22 139 -6 149 13 8 37
72 58 156 14 55 22 129 40 340 4 44 10 87 14 95 13 25 -12 85 -37 88 -31 5
-44 -27 -50 -117 -3 -42 -9 -81 -14 -87 -7 -8 -30 9 -77 57 -40 39 -91 79
-123 94 -66 32 -103 61 -94 75 7 11 384 13 413 3 9 -4 12 -125 12 -559 0 -541
0 -554 19 -554 19 0 20 13 20 575 l0 575 -312 -1 -312 0 50 -19 c28 -11 66
-33 85 -49 32 -27 33 -29 10 -24 -14 3 -35 14 -48 24 -64 50 -210 78 -302 59z
m173 -41 c24 -14 20 -17 -56 -44 -72 -25 -149 -74 -173 -110 -10 -15 -13 -32
-8 -50 7 -27 6 -27 -42 -24 -82 4 -101 0 -134 -28 l-32 -27 7 35 c25 117 155
238 280 260 47 9 131 2 158 -12z m550 -151 c-35 -349 -49 -429 -89 -511 -25
-52 -37 -25 -12 30 62 140 25 335 -85 445 -147 146 -394 152 -538 11 -27 -25
-39 -31 -45 -22 -11 18 58 75 136 113 60 29 73 31 171 31 101 0 108 -1 181
-38 115 -56 190 -150 222 -274 11 -44 12 -40 25 111 15 194 20 226 35 226 9 0
9 -30 -1 -122z m-408 43 c6 -3 19 -7 30 -9 11 -1 25 -8 31 -15 10 -10 51 -110
55 -135 1 -4 4 -13 7 -20 2 -7 2 -45 0 -85 -9 -129 -84 -233 -211 -296 -115
-56 -257 -45 -287 22 -7 17 -22 62 -32 101 -10 39 -23 73 -28 74 -17 6 -11 18
16 31 19 8 30 9 40 0 15 -13 162 -2 181 13 7 6 19 6 31 -1 32 -17 102 -11 115
10 15 24 33 24 64 -1 33 -26 49 -25 66 3 20 33 8 166 -16 181 -15 9 -22 6 -40
-16 l-22 -27 -28 25 c-29 25 -52 30 -76 15 -9 -6 -22 -4 -36 5 -12 8 -24 12
-27 9 -6 -7 -127 -9 -134 -2 -9 9 17 42 52 66 64 44 209 74 249 52z m253 -169
c38 -69 53 -128 50 -204 -3 -71 -20 -102 -31 -56 -3 13 -17 77 -32 143 -14 66
-29 130 -32 143 -8 35 20 18 45 -26z m-670 28 c6 0 12 -7 12 -15 0 -17 -16
-20 -25 -5 -10 16 -51 12 -74 -8 -25 -19 -30 -66 -13 -99 16 -29 58 -38 89
-18 23 16 25 16 21 -2 -2 -14 -14 -19 -51 -21 -39 -3 -51 1 -72 22 -27 27 -33
72 -14 107 13 25 67 50 94 44 11 -3 26 -5 33 -5z m142 -10 c0 -5 -15 -10 -34
-10 -28 0 -34 -4 -38 -25 -5 -23 -2 -25 28 -25 19 0 34 -4 34 -10 0 -5 -15
-10 -34 -10 -30 0 -33 -2 -32 -30 1 -28 3 -30 44 -30 23 0 42 -4 42 -10 0 -5
-25 -10 -55 -10 l-55 0 0 85 0 85 50 0 c28 0 50 -4 50 -10z m140 -5 c17 -20 9
-48 -18 -60 -28 -13 -28 -16 8 -50 33 -31 38 -45 16 -45 -7 0 -26 18 -41 40
-15 22 -32 40 -36 40 -5 0 -9 -18 -9 -40 0 -26 -4 -40 -13 -40 -10 0 -13 22
-13 85 l0 85 47 0 c28 0 51 -6 59 -15z m118 -47 l64 -63 -6 63 c-6 52 -5 62 8
62 13 0 16 -15 15 -85 0 -47 -5 -85 -9 -85 -5 0 -33 27 -63 60 -29 33 -56 60
-58 60 -2 0 -2 -27 -1 -60 3 -45 0 -60 -10 -60 -10 0 -13 21 -13 85 0 47 2 85
5 85 2 0 33 -28 68 -62z m-402 7 c19 -19 8 -62 -18 -71 -14 -4 -27 1 -41 15
-18 17 -19 24 -9 46 13 28 45 33 68 10z m-124 -115 c22 -16 47 -30 55 -30 15
0 18 -16 3 -25 -5 -3 -10 -26 -10 -50 0 -37 -3 -43 -16 -38 -16 6 -84 136 -84
160 0 18 5 17 52 -17z m102 -110 c4 -27 16 -71 26 -96 24 -56 24 -57 2 -45
-19 10 -45 80 -58 154 -5 29 -3 37 9 37 10 0 16 -15 21 -50z"/>
<path d="M570 805 c0 -37 9 -42 41 -25 23 13 25 46 3 54 -34 13 -44 7 -44 -29z"/>
<path d="M1442 1028 c4 -10 94 -16 359 -26 223 -8 358 -17 364 -24 7 -7 -2 -9
-32 -5 -105 13 -190 -127 -134 -219 29 -48 76 -79 195 -128 168 -69 213 -130
152 -203 -29 -34 -122 -87 -137 -78 -5 4 -19 -1 -30 -10 -16 -16 -61 -20 -351
-31 -183 -7 -345 -13 -360 -14 -18 0 -28 -5 -28 -15 0 -14 15 -15 113 -10 61
3 224 10 360 15 215 8 251 8 264 -5 18 -19 38 -19 56 0 15 15 105 13 515 -10
84 -5 102 -3 102 8 0 16 -59 21 -345 32 -188 7 -265 15 -265 26 0 5 14 9 30 9
17 0 30 -5 30 -10 0 -14 37 5 73 39 57 53 71 113 41 176 -21 45 -70 81 -164
120 -167 71 -210 104 -210 160 0 53 100 135 164 135 14 0 29 7 33 15 7 12 64
17 311 27 235 9 302 15 302 25 0 16 -24 16 -348 2 -190 -9 -256 -9 -265 0 -14
14 -42 14 -66 -1 -14 -8 -92 -8 -322 1 -385 14 -412 14 -407 -1z"/>
<path d="M2500 660 l0 -260 35 0 35 0 0 115 0 115 100 0 100 0 0 31 0 31 -100
-4 -100 -4 0 88 0 88 115 0 115 0 0 30 0 30 -150 0 -150 0 0 -260z"/>
<path d="M1540 655 l0 -255 35 0 35 0 0 120 0 120 120 0 120 0 0 -120 0 -120
33 0 33 0 -1 255 0 255 -32 0 -33 0 0 -107 0 -108 -120 0 -120 0 0 108 0 107
-35 0 -35 0 0 -255z"/>
<path d="M961 698 c-1 -55 -35 -135 -84 -200 -24 -32 -137 -157 -251 -278
-174 -185 -203 -220 -182 -220 13 0 26 4 28 10 2 5 41 48 87 95 69 70 88 84
105 79 36 -12 153 -6 201 11 41 13 80 32 149 72 25 15 25 14 32 -28 2 -19 15
-79 28 -134 16 -74 27 -101 39 -103 11 -2 15 2 12 10 -2 7 -36 159 -75 338
-38 179 -74 339 -79 355 l-9 30 -1 -37z m30 -216 c10 -37 15 -77 12 -90 -6
-26 -108 -98 -151 -108 -15 -3 -39 -10 -53 -16 -15 -5 -39 -8 -55 -6 -27 3
-25 6 72 114 54 61 106 124 114 140 16 31 31 46 39 38 3 -2 13 -35 22 -72z
m17 -169 c-67 -70 -214 -120 -310 -107 -72 9 -58 24 22 24 106 0 238 52 289
114 7 9 18 13 23 10 5 -4 -5 -22 -24 -41z"/>
<path d="M1480 155 c0 -19 5 -35 10 -35 6 0 10 7 10 15 0 8 5 15 10 15 6 0 10
-7 10 -15 0 -8 5 -15 10 -15 6 0 10 16 10 35 0 19 -4 35 -10 35 -5 0 -10 -7
-10 -15 0 -8 -4 -15 -10 -15 -5 0 -10 7 -10 15 0 8 -4 15 -10 15 -5 0 -10 -16
-10 -35z"/>
<path d="M1560 155 c0 -28 4 -35 20 -35 25 0 26 17 3 23 -15 4 -15 5 2 6 17 1
18 3 5 11 -10 6 -11 10 -2 10 6 0 12 5 12 10 0 6 -9 10 -20 10 -16 0 -20 -7
-20 -35z"/>
<path d="M1620 155 c0 -19 5 -35 10 -35 6 0 10 7 10 15 0 8 7 15 15 15 8 0 15
9 15 20 0 15 -7 20 -25 20 -22 0 -25 -4 -25 -35z"/>
<path d="M1724 178 c-4 -6 1 -17 11 -25 17 -12 18 -13 1 -13 -9 0 -14 -4 -11
-10 9 -15 35 -12 42 5 3 9 -3 23 -13 31 -17 14 -17 15 -1 10 9 -3 17 -1 17 4
0 14 -37 12 -46 -2z"/>
<path d="M1856 182 c-3 -5 -2 -21 2 -35 l7 -27 11 35 c9 28 8 35 -2 35 -7 0
-15 -4 -18 -8z"/>
<path d="M1897 178 c-6 -17 10 -58 22 -58 5 0 8 12 6 28 -2 15 -4 30 -4 35 -1
12 -18 8 -24 -5z"/>
<path d="M2240 155 c0 -19 5 -35 10 -35 6 0 10 7 10 15 0 8 4 15 9 15 5 0 11
9 14 20 4 16 0 20 -19 20 -21 0 -24 -5 -24 -35z"/>
<path d="M2530 180 c0 -5 -6 -10 -14 -10 -19 0 -28 -14 -20 -34 3 -9 15 -14
26 -12 15 2 21 11 23 34 2 18 -1 32 -6 32 -5 0 -9 -4 -9 -10z"/>
<path d="M2627 178 c-6 -17 10 -58 23 -58 14 0 13 17 -2 23 -10 4 -10 7 0 15
10 7 10 11 -1 21 -11 9 -16 9 -20 -1z"/>
<path d="M2672 155 c-2 -19 2 -35 8 -35 5 0 10 16 10 35 0 19 -4 35 -8 35 -4
0 -9 -16 -10 -35z"/>
<path d="M1802 171 c-19 -11 -11 -45 11 -49 9 -2 20 4 23 13 9 21 -16 47 -34
36z"/>
<path d="M2039 177 c0 -1 -3 -14 -5 -29 -4 -22 -1 -27 16 -25 24 2 28 42 5 51
-8 3 -15 4 -16 3z"/>
<path d="M2108 172 c-19 -4 -26 -52 -8 -52 6 0 10 9 10 19 0 11 6 21 13 24 17
6 5 14 -15 9z"/>
<path d="M2152 171 c-19 -11 -11 -45 11 -49 9 -2 20 4 23 13 9 21 -16 47 -34
36z"/>
<path d="M2312 171 c-19 -11 -11 -45 11 -49 9 -2 20 4 23 13 9 21 -16 47 -34
36z"/>
<path d="M2574 172 c-19 -13 -10 -47 14 -50 18 -3 22 1 22 21 0 25 -19 40 -36
29z"/>
<path d="M2788 173 c-11 -3 -18 -14 -18 -29 0 -30 17 -32 23 -1 l4 22 2 -22
c1 -31 21 -29 21 1 0 28 -7 34 -32 29z"/>
<path d="M1970 164 c0 -15 22 -44 31 -39 17 11 10 41 -11 42 -11 1 -20 -1 -20
-3z"/>
<path d="M2362 148 c4 -33 48 -34 48 -2 0 28 -16 32 -23 7 -4 -17 -5 -17 -6 0
0 9 -6 17 -12 17 -6 0 -9 -10 -7 -22z"/>
<path d="M2430 145 c0 -31 17 -33 23 -2 l4 22 2 -22 c2 -31 21 -29 21 2 0 20
-5 25 -25 25 -20 0 -25 -5 -25 -25z"/>
<path d="M2704 159 c-3 -6 1 -18 10 -27 15 -15 17 -15 32 0 19 19 11 38 -16
38 -10 0 -22 -5 -26 -11z"/>
</g>
</svg>
