<?xml version="1.0" standalone="no"?>
<!DOCTYPE svg PUBLIC "-//W3C//DTD SVG 20010904//EN"
 "http://www.w3.org/TR/2001/REC-SVG-20010904/DTD/svg10.dtd">
<svg version="1.0" xmlns="http://www.w3.org/2000/svg"
 width="300.000000pt" height="159.000000pt" viewBox="0 0 300.000000 159.000000"
 preserveAspectRatio="xMidYMid meet">
<metadata>
Created by potrace 1.10, written by Peter Selinger 2001-2011
</metadata>
<g transform="translate(0.000000,159.000000) scale(0.100000,-0.100000)"
fill="#000000" stroke="none">
<path d="M1759 1569 c-61 -14 -148 -56 -215 -105 -57 -40 -146 -134 -172 -180
-8 -14 -13 -13 -49 10 -73 48 -149 69 -253 69 -108 0 -177 -21 -268 -80 -88
-59 -162 -163 -191 -269 l-11 -40 -82 4 c-68 3 -94 0 -140 -18 -80 -30 -157
-102 -194 -182 -25 -55 -29 -74 -28 -148 1 -66 6 -96 24 -135 33 -72 109 -147
183 -181 l62 -29 402 0 c356 0 400 -2 389 -15 -94 -113 -187 -232 -185 -234 2
-2 79 52 171 120 l166 125 540 -1 c324 0 569 4 613 10 134 19 235 82 308 190
106 159 86 372 -49 514 -52 55 -140 108 -197 121 -27 5 -34 13 -48 56 -24 72
-106 189 -178 254 -95 86 -250 155 -347 154 -34 0 -34 -1 -10 -11 14 -5 33
-14 42 -19 10 -5 24 -9 32 -9 26 0 139 -53 197 -91 86 -58 162 -147 215 -253
47 -94 48 -95 103 -117 83 -33 151 -82 192 -136 65 -86 74 -116 74 -238 0 -96
-3 -116 -24 -155 -51 -97 -130 -171 -223 -208 -38 -15 -111 -17 -643 -22
l-600 -5 -62 -43 -63 -43 0 32 c0 22 -5 32 -20 36 -11 3 -20 9 -20 14 0 4
-177 9 -392 11 -380 3 -395 4 -438 25 -61 29 -103 70 -145 139 -32 54 -35 64
-35 141 0 104 26 169 94 231 74 68 124 87 231 87 l89 0 23 34 c13 19 23 41 23
49 0 8 14 41 32 74 40 75 123 151 208 191 60 29 73 31 180 31 113 1 117 0 194
-36 43 -21 85 -38 94 -38 8 0 58 44 111 99 79 81 109 105 171 134 84 39 106
48 135 54 11 2 24 8 29 13 6 6 19 10 31 10 11 0 27 5 35 10 19 12 -59 12 -111
-1z"/>
<path d="M1885 1467 c-11 -7 -55 -31 -97 -54 -115 -64 -119 -71 -117 -222 l1
-126 32 -30 c18 -16 68 -50 111 -74 90 -49 137 -55 184 -22 16 12 32 21 35 21
11 0 112 68 126 86 19 22 28 261 11 292 -10 18 -180 122 -201 122 -5 0 -10 5
-10 10 0 13 -50 11 -75 -3z m160 -73 l115 -66 0 -127 c0 -109 -3 -130 -17
-143 -31 -26 -212 -130 -221 -126 -5 1 -59 32 -120 68 l-112 64 1 71 c1 38 4
98 8 133 l6 64 105 63 c58 36 109 65 113 65 4 0 59 -30 122 -66z"/>
<path d="M1825 1385 c-49 -30 -91 -58 -93 -63 -1 -4 7 -13 18 -19 15 -10 18
-10 15 0 -3 6 -1 17 3 22 13 19 137 87 157 87 11 0 53 -19 93 -43 41 -24 82
-49 93 -55 10 -6 16 -14 12 -18 -4 -3 -6 -51 -4 -106 l3 -99 -44 -31 c-57 -42
-116 -72 -128 -65 -8 5 -26 -33 -18 -40 1 -2 49 24 106 58 l102 62 0 115 c0
63 -4 120 -8 126 -8 12 -197 124 -209 124 -4 -1 -48 -25 -98 -55z"/>
<path d="M1710 1192 l0 -119 105 -61 c100 -57 105 -59 105 -36 0 17 -4 22 -15
18 -15 -6 -152 68 -168 90 -4 6 -6 52 -5 101 2 68 6 89 16 87 18 -3 6 15 -19
28 -18 10 -19 6 -19 -108z"/>
<path d="M354 852 c-50 -7 -56 -29 -56 -198 1 -194 0 -194 113 -194 87 0 111
7 153 43 30 26 46 27 46 3 0 -21 34 -46 62 -46 17 0 36 11 53 32 l27 32 25
-32 c27 -36 73 -43 107 -17 17 13 22 13 43 0 18 -12 53 -15 168 -14 137 2 147
3 173 25 35 31 67 30 94 -1 23 -27 75 -34 95 -14 8 8 17 8 31 0 32 -17 63 -13
88 10 21 20 24 20 46 5 29 -20 57 -20 86 0 22 15 25 15 46 -5 27 -25 73 -27
98 -4 16 14 22 15 36 5 33 -24 43 -24 66 -3 l23 21 25 -20 c21 -16 41 -20 108
-20 45 0 90 5 101 10 13 7 25 7 38 0 21 -11 29 -11 133 -10 37 1 70 5 73 10 3
4 22 2 42 -6 66 -23 135 -12 180 29 52 46 50 198 -3 248 -14 13 -42 25 -67 28
-35 5 -43 10 -45 31 -5 33 -30 60 -57 60 -31 0 -45 -19 -45 -65 0 -22 -3 -50
-6 -63 -6 -22 -6 -22 -41 8 -28 25 -42 30 -87 30 -39 0 -60 -6 -80 -21 -31
-25 -32 -36 -5 -65 l21 -22 -26 -23 c-14 -12 -26 -30 -26 -39 0 -27 -22 -40
-66 -40 -29 0 -44 5 -48 16 -3 9 -6 65 -6 125 0 126 -8 149 -50 149 -37 0 -50
-23 -50 -89 0 -53 -7 -59 -40 -39 -15 10 -24 10 -39 1 -27 -17 -41 2 -41 53 0
35 -5 46 -27 62 -49 34 -137 12 -154 -38 -13 -36 -26 -38 -39 -6 -21 56 -112
76 -164 35 -23 -18 -26 -28 -26 -79 0 -62 -14 -88 -23 -42 -13 65 -27 106 -41
120 -19 20 -114 32 -142 19 -23 -10 -51 -63 -59 -112 -2 -16 -12 -58 -21 -92
-13 -49 -21 -63 -35 -63 -23 0 -24 10 -4 36 20 26 19 63 -2 87 -12 13 -14 21
-7 24 31 11 47 32 47 63 0 53 -22 62 -141 58 -102 -3 -111 -6 -126 -43 -2 -6
-10 -5 -22 2 -53 35 -81 45 -133 46 -90 1 -130 -10 -137 -38 -7 -28 -26 -32
-44 -9 -8 8 -23 20 -34 26 -22 12 -145 25 -182 20z m2176 -72 c0 -57 1 -60 19
-50 30 15 76 12 100 -7 42 -34 49 -158 12 -204 -19 -24 -71 -37 -128 -31 l-43
4 0 174 c0 167 1 174 20 174 18 0 20 -7 20 -60z m-470 -102 l0 -153 75 3 c70
3 75 2 75 -17 0 -20 -5 -21 -95 -21 l-95 0 0 170 c0 163 1 170 20 170 19 0 20
-7 20 -152z m-1540 129 c57 -28 79 -158 43 -248 -21 -53 -57 -69 -160 -69
l-78 0 0 165 0 165 85 0 c48 0 96 -6 110 -13z m331 -16 c39 -39 41 -105 5
-148 l-24 -28 24 -59 c13 -33 24 -61 24 -63 0 -2 -17 -3 -38 -3 -38 0 -39 1
-56 55 -16 53 -18 55 -53 55 l-35 0 4 -55 5 -55 -36 0 -36 0 0 165 0 165 93 0
c90 0 95 -1 123 -29z m299 -1 l0 -30 -76 0 -75 0 3 -37 3 -37 58 3 57 2 0 -30
0 -31 -60 0 -60 0 0 -40 0 -40 75 0 75 0 0 -30 0 -30 -110 0 -110 0 0 165 0
165 110 0 110 0 0 -30z m230 26 c0 -3 16 -74 35 -157 19 -84 35 -156 35 -161
0 -4 -15 -8 -34 -8 -29 0 -34 4 -39 30 -6 29 -8 30 -67 30 l-60 0 0 -30 c0
-28 -2 -30 -41 -30 -22 0 -38 4 -35 8 3 5 19 71 36 148 17 76 33 147 36 157 4
14 17 17 70 17 35 0 64 -2 64 -4z m259 -114 c14 -62 28 -107 31 -100 4 7 17
59 30 116 l24 102 58 0 58 0 0 -165 0 -165 -35 0 -34 0 -3 131 -3 132 -31
-124 -31 -124 -35 -3 -36 -3 -28 118 c-15 65 -32 123 -36 128 -5 6 -8 -47 -6
-123 l3 -132 -37 0 -38 0 0 165 0 166 62 -3 62 -3 25 -113z m760 12 c17 -22
21 -41 21 -110 0 -68 3 -84 15 -84 8 0 15 -9 15 -21 0 -17 -4 -19 -22 -13 -24
8 -40 9 -117 3 -36 -3 -47 1 -62 20 -21 26 -24 62 -9 91 11 20 66 40 113 40
22 0 27 4 27 24 0 34 -15 41 -82 38 -46 -3 -58 0 -58 12 0 16 23 23 92 25 39
1 50 -3 67 -25z m-449 -40 c0 -31 -3 -35 -22 -32 -39 5 -37 68 2 68 16 0 20
-6 20 -36z m39 -68 c2 -52 -7 -61 -45 -41 -20 10 -32 11 -41 4 -18 -15 -28 -5
-31 30 -2 30 12 49 23 31 9 -15 51 -12 65 5 20 24 26 18 29 -29z m-39 -86 c0
-25 -4 -30 -25 -30 -21 0 -25 5 -25 30 0 25 4 30 25 30 21 0 25 -5 25 -30z"/>
<path d="M2530 610 l0 -90 39 0 c22 0 46 7 54 15 22 21 31 89 17 130 -11 34
-13 35 -61 35 l-49 0 0 -90z m75 4 c0 -43 -3 -49 -22 -52 -21 -3 -23 1 -23 46
0 54 4 61 28 58 13 -2 17 -14 17 -52z"/>
<path d="M395 655 l0 -105 36 0 c57 0 72 18 77 94 6 88 -11 116 -71 116 l-42
0 0 -105z m75 29 c8 -42 -2 -89 -20 -89 -11 0 -16 14 -18 49 -2 27 -1 55 2 63
9 23 30 10 36 -23z"/>
<path d="M700 710 l0 -50 43 0 c49 0 67 13 67 50 0 37 -18 50 -67 50 l-43 0 0
-50z"/>
<path d="M1291 713 c-6 -32 -14 -68 -17 -80 -6 -22 -3 -23 41 -23 38 0 46 3
41 15 -3 9 -11 45 -18 80 -6 37 -17 65 -23 65 -7 0 -18 -26 -24 -57z"/>
<path d="M2300 601 c-21 -6 -25 -13 -25 -41 0 -31 3 -35 29 -38 15 -2 39 -1
52 2 20 5 24 13 24 46 0 37 -2 40 -27 39 -16 -1 -39 -4 -53 -8z"/>
<path d="M413 207 c-34 -33 -28 -87 8 -87 16 0 19 8 19 55 0 30 -1 55 -2 54
-2 0 -13 -10 -25 -22z"/>
<path d="M750 175 c0 -30 5 -55 10 -55 6 0 10 25 10 55 0 30 -4 55 -10 55 -5
0 -10 -25 -10 -55z"/>
<path d="M830 174 c0 -52 1 -55 23 -52 31 4 37 62 8 89 -11 10 -23 19 -26 19
-3 0 -5 -25 -5 -56z"/>
<path d="M920 175 c0 -31 4 -55 10 -55 6 0 10 23 9 55 -1 30 -6 55 -11 55 -4
0 -8 -25 -8 -55z"/>
<path d="M1378 188 c5 -71 10 -77 11 -15 0 31 -2 57 -7 57 -4 0 -6 -19 -4 -42z"/>
<path d="M1500 215 c0 -8 -7 -15 -16 -15 -12 0 -14 -9 -12 -37 2 -31 7 -39 26
-41 21 -3 22 0 22 52 0 31 -4 56 -10 56 -5 0 -10 -7 -10 -15z"/>
<path d="M1705 180 c2 -70 15 -76 15 -7 0 31 -4 57 -8 57 -5 0 -8 -22 -7 -50z"/>
<path d="M2217 223 c-10 -16 -7 -133 3 -133 5 0 10 21 11 48 0 26 2 57 3 70 3
21 -8 30 -17 15z"/>
<path d="M2280 211 c0 -10 7 -24 15 -31 8 -7 15 -19 15 -26 0 -8 -7 -14 -15
-14 -8 0 -15 -5 -15 -11 0 -6 10 -9 23 -7 27 4 35 39 12 58 -16 13 -21 45 -6
35 5 -3 12 -1 16 5 4 6 -5 10 -19 10 -19 0 -26 -5 -26 -19z"/>
<path d="M1850 209 c0 -6 -9 -8 -20 -4 -26 8 -38 -19 -19 -42 11 -13 11 -17 2
-20 -18 -6 -16 -23 2 -23 24 0 29 29 10 50 -17 19 -17 20 3 20 16 0 21 -7 24
-32 2 -17 8 -33 14 -35 9 -3 10 15 5 90 -1 11 -21 8 -21 -4z"/>
<path d="M1927 213 c-2 -4 -2 -27 1 -50 3 -31 9 -43 20 -43 12 0 13 3 4 12
-15 15 -16 55 -1 60 7 2 6 8 -4 16 -8 7 -17 9 -20 5z"/>
<path d="M2028 210 c-2 -6 -2 -29 0 -51 5 -53 29 -52 26 2 -2 41 -18 72 -26
49z"/>
<path d="M462 161 c1 -44 2 -44 5 -8 2 20 8 37 14 37 5 0 9 4 9 8 0 5 -7 9
-15 9 -11 0 -15 -11 -13 -46z"/>
<path d="M504 196 c-10 -27 1 -71 19 -74 9 -2 17 1 17 7 0 6 -7 11 -15 11 -8
0 -15 5 -15 10 0 6 6 10 14 10 22 0 30 19 16 35 -16 19 -29 19 -36 1z"/>
<path d="M565 201 c-3 -6 -1 -11 6 -11 8 0 5 -7 -6 -20 -21 -23 -13 -50 15
-50 19 0 21 5 18 42 -3 40 -19 60 -33 39z"/>
<path d="M610 163 c0 -53 17 -57 23 -5 l4 37 1 -37 c1 -21 6 -38 11 -38 6 0
12 17 14 38 l4 37 1 -37 c1 -21 7 -38 13 -38 6 0 9 17 7 43 -3 41 -4 42 -40
43 l-38 1 0 -44z"/>
<path d="M785 201 c-3 -6 2 -11 12 -11 17 -1 17 -1 1 -11 -26 -15 -24 -59 3
-59 18 0 20 5 17 42 -3 40 -19 60 -33 39z"/>
<path d="M963 203 c-15 -6 -18 -83 -3 -83 6 0 10 16 10 36 0 23 4 33 11 28 6
-3 9 -17 6 -30 -2 -14 0 -27 5 -30 5 -4 8 12 6 37 -3 42 -11 52 -35 42z"/>
<path d="M1423 203 c-8 -3 -12 -21 -11 -46 l1 -42 4 38 c5 47 23 49 23 2 0
-19 5 -35 10 -35 14 0 12 66 -2 77 -7 6 -19 8 -25 6z"/>
<path d="M1575 200 c-3 -5 0 -10 7 -10 9 -1 7 -5 -4 -14 -25 -19 -24 -56 2
-56 17 0 20 7 20 45 0 42 -11 58 -25 35z"/>
<path d="M1622 162 c1 -44 2 -45 5 -9 5 47 23 49 23 2 0 -19 5 -35 10 -35 14
0 12 67 -2 77 -31 18 -38 11 -36 -35z"/>
<path d="M1753 203 c-8 -3 -12 -21 -11 -46 l1 -42 4 38 c5 47 23 49 23 2 0
-19 5 -35 10 -35 14 0 12 66 -2 77 -7 6 -19 8 -25 6z"/>
<path d="M1972 168 c-2 -42 1 -48 18 -48 17 0 20 6 18 48 -1 43 -2 44 -5 10
-2 -21 -8 -38 -13 -38 -5 0 -11 17 -13 38 -3 34 -4 33 -5 -10z"/>
<path d="M2077 203 c-4 -3 -7 -21 -7 -40 0 -34 17 -50 42 -40 8 4 5 8 -9 12
-28 9 -30 25 -3 25 22 0 26 20 8 38 -14 14 -22 15 -31 5z"/>
<path d="M2161 201 c-7 -5 -11 -23 -9 -42 2 -26 8 -34 23 -34 16 0 21 8 23 36
3 38 -13 55 -37 40z"/>
<path d="M2353 203 c-19 -7 -16 -72 2 -80 9 -3 19 -2 23 2 4 4 1 10 -5 12 -16
6 -17 50 -1 55 7 3 8 7 3 10 -6 3 -16 3 -22 1z"/>
<path d="M2437 204 c-4 -4 -7 -25 -7 -46 0 -31 3 -38 20 -38 11 0 20 5 20 10
0 6 -7 10 -15 10 -8 0 -15 5 -15 10 0 6 7 10 16 10 10 0 14 7 12 22 -3 22 -19
33 -31 22z"/>
<path d="M2498 203 c-14 -3 -18 -15 -18 -44 0 -21 5 -39 10 -39 6 0 10 16 10
35 0 47 18 45 23 -2 l4 -38 1 42 c2 45 -3 52 -30 46z"/>
<path d="M2552 198 c-22 -22 -11 -78 14 -78 8 0 14 5 14 10 0 6 -4 10 -10 10
-5 0 -10 11 -10 25 0 14 5 25 10 25 6 0 10 5 10 10 0 14 -13 13 -28 -2z"/>
<path d="M2601 196 c-20 -24 -10 -70 17 -74 12 -2 22 1 22 7 0 6 -7 11 -15 11
-8 0 -15 5 -15 10 0 6 7 10 16 10 10 0 14 7 12 22 -4 27 -21 33 -37 14z"/>
<path d="M1530 160 c0 -22 5 -40 10 -40 6 0 10 18 10 40 0 22 -4 40 -10 40 -5
0 -10 -18 -10 -40z"/>
<path d="M1890 160 c0 -22 5 -40 10 -40 6 0 10 18 10 40 0 22 -4 40 -10 40 -5
0 -10 -18 -10 -40z"/>
</g>
</svg>
