<svg xmlns="http://www.w3.org/2000/svg" width="1024" height="640" viewBox="0 0 1024 640" version="1.1"><path d="M 288 1.136 C 177.863 12.416, 81.750 79.295, 32.390 179 C 11.528 221.140, 1.371 263.120, 0.282 311.708 C -0.499 346.496, 1.949 368.885, 9.987 400.500 C 32.394 488.622, 94.175 565.072, 175.910 605.817 C 209.715 622.668, 236.307 631.127, 274.987 637.332 L 288.500 639.500 512 639.500 L 735.500 639.500 749.013 637.332 C 801.743 628.873, 845.339 611.721, 886.500 583.241 C 945.958 542.100, 991.360 479.105, 1011.534 409.757 C 1016.176 393.799, 1020.639 371.432, 1022.061 357 C 1022.683 350.675, 1023.600 344.719, 1024.097 343.764 C 1025.246 341.554, 1025.293 294.701, 1024.145 295.410 C 1023.675 295.701, 1023.001 292.181, 1022.648 287.588 C 1020.412 258.493, 1010.133 219.864, 996.608 189.730 C 949.039 83.747, 849.923 12.485, 734.144 1.025 C 721.300 -0.246, 300.476 -0.141, 288 1.136 M 304.325 129.051 C 270.141 131.739, 237.898 143.596, 208.500 164.290 C 196.390 172.815, 172.985 195.994, 164.734 207.634 C 146.875 232.828, 135.017 261.915, 130.423 291.795 C 128.237 306.009, 128.218 333.914, 130.384 347.909 C 136.633 388.291, 153.846 423.138, 181.988 452.385 C 210.537 482.055, 246.862 501.680, 285.987 508.572 C 304.709 511.870, 320.879 512.087, 522 511.744 C 742.561 511.368, 727.776 511.779, 752.500 505.332 C 805.279 491.570, 850.271 455.118, 875.078 406.022 C 888.979 378.510, 895.207 351.897, 895.207 320 C 895.207 290.779, 890.525 268.399, 878.786 241.500 C 865.188 210.344, 838.202 178.834, 808.500 159.433 C 786.623 145.144, 761.088 135.313, 732.886 130.322 C 724.368 128.814, 704.580 128.642, 519 128.456 C 406.525 128.343, 309.921 128.611, 304.325 129.051 M 0.432 320 C 0.432 333.475, 0.574 338.988, 0.747 332.250 C 0.920 325.512, 0.920 314.488, 0.747 307.750 C 0.574 301.012, 0.432 306.525, 0.432 320" stroke="none" fill="#c0543c" fill-rule="evenodd"/><path d="" stroke="none" fill="#bc543c" fill-rule="evenodd"/></svg>