<?xml version="1.0" standalone="no"?>
<!DOCTYPE svg PUBLIC "-//W3C//DTD SVG 20010904//EN"
 "http://www.w3.org/TR/2001/REC-SVG-20010904/DTD/svg10.dtd">
<svg version="1.0" xmlns="http://www.w3.org/2000/svg"
 width="300.000000pt" height="122.000000pt" viewBox="0 0 300.000000 122.000000"
 preserveAspectRatio="xMidYMid meet">
<metadata>
Created by potrace 1.10, written by Peter Selinger 2001-2011
</metadata>
<g transform="translate(0.000000,122.000000) scale(0.100000,-0.100000)"
fill="#000000" stroke="none">
<path d="M10 866 c0 -350 0 -355 21 -361 11 -4 23 -4 26 -1 4 3 -2 6 -11 6
-12 0 -16 5 -13 15 4 8 1 17 -4 21 -6 3 -8 18 -4 31 12 49 57 93 141 139 46
25 84 52 84 59 0 7 -9 23 -21 36 l-20 24 17 -28 c9 -15 14 -30 12 -33 -9 -8
-59 88 -54 103 3 7 18 12 33 11 15 0 63 3 105 7 75 8 77 7 71 -14 -3 -11 0
-28 8 -37 11 -14 50 -15 333 -9 176 3 321 7 322 8 2 1 -8 47 -22 101 -13 54
-24 109 -24 121 0 19 -17 35 -35 35 -1 0 -5 -18 -7 -40 -3 -33 0 -40 16 -42
15 -2 24 -19 38 -73 10 -38 18 -74 18 -80 0 -5 -25 -11 -55 -13 -53 -2 -55 -1
-50 20 3 13 9 68 14 123 5 55 12 107 16 116 3 10 2 20 -3 23 -6 3 -13 -20 -18
-57 l-8 -62 -6 45 -5 45 -63 3 c-37 2 -86 -4 -117 -13 -54 -15 -54 -15 -60
-63 -3 -26 -8 -59 -10 -74 -5 -31 8 -38 71 -38 36 0 44 3 44 19 0 10 5 32 11
50 10 27 15 31 47 31 77 0 83 -6 76 -69 -11 -111 4 -101 -150 -101 l-136 0 6
23 c3 12 8 65 11 117 4 81 3 88 -6 47 -5 -26 -13 -80 -18 -120 -7 -61 -9 -65
-10 -25 0 26 -6 48 -13 50 -9 3 -9 15 -1 49 l11 44 2 -40 2 -40 9 40 c11 57
11 97 -1 90 -6 -4 -8 -10 -5 -15 7 -11 -11 -28 -90 -86 -38 -28 -61 -52 -56
-57 5 -5 37 -7 71 -5 l62 3 -6 -29 c-3 -16 -6 -33 -6 -38 0 -5 -43 -7 -97 -6
-73 2 -97 6 -95 16 1 7 4 23 6 35 2 12 9 21 16 19 6 -1 8 3 5 9 -4 6 22 40 62
79 124 121 265 170 563 194 l175 13 -208 2 c-186 1 -215 -1 -275 -20 -125 -40
-213 -93 -295 -178 l-75 -78 -83 -7 c-100 -9 -126 -18 -141 -51 -9 -20 -8 -33
8 -66 18 -41 18 -42 0 -53 -11 -6 -41 -26 -69 -44 -27 -18 -52 -31 -54 -28 -2
2 -4 121 -3 265 0 228 -1 261 -15 261 -13 0 -15 -43 -15 -354z m782 170 c-11
-11 -25 -31 -31 -43 -17 -33 -41 -29 -41 5 0 36 18 60 50 64 37 6 44 -2 22
-26z"/>
<path d="M1330 1211 c0 -5 82 -10 183 -13 178 -4 183 -4 247 -34 54 -25 82
-48 150 -124 47 -52 101 -109 120 -127 l35 -34 -45 7 c-25 4 -47 11 -49 16 -2
5 -29 42 -60 81 -50 63 -123 127 -144 127 -4 0 13 -30 37 -67 23 -38 53 -87
66 -110 14 -26 28 -39 37 -36 7 3 26 0 41 -6 15 -6 52 -13 82 -15 179 -17 368
-38 535 -61 105 -15 209 -26 232 -26 23 1 45 -4 49 -10 5 -9 -1 -10 -19 -5
-20 5 -32 1 -48 -15 l-22 -22 5 21 c4 13 2 20 -3 16 -5 -3 -7 -20 -3 -39 3
-19 1 -35 -5 -39 -26 -16 67 -140 97 -129 10 4 13 2 8 -5 -10 -16 6 -15 23 1
11 9 13 9 7 0 -12 -21 5 -15 24 10 15 17 19 19 23 7 41 -133 39 -136 -59 -145
-42 -4 -78 -4 -81 -1 -4 3 6 6 20 6 29 0 36 21 17 50 -11 18 9 28 58 29 17 1
32 5 32 11 0 6 -19 7 -47 4 -75 -9 -78 -10 -59 -39 9 -13 16 -28 16 -33 0 -14
-82 -21 -315 -27 -115 -3 -220 -8 -232 -11 -16 -3 -23 0 -23 10 0 8 -11 28
-25 44 l-24 29 -222 6 c-148 4 -227 3 -235 -4 -7 -6 -16 -24 -19 -40 -6 -26
-10 -29 -48 -29 l-42 0 -40 77 c-51 97 -101 139 -180 148 -30 4 -66 5 -79 1
-83 -21 -127 -122 -129 -297 l-2 -110 -80 6 c-254 19 -633 58 -651 66 -19 10
-54 57 -54 74 0 4 23 4 50 0 30 -4 50 -3 50 3 0 5 -23 12 -50 14 -58 6 -56 5
-65 40 l-7 27 68 -6 c50 -5 65 -3 60 5 -4 7 -32 12 -67 12 l-60 0 -29 63 c-38
85 -59 102 -125 102 -70 0 -106 -26 -121 -86 -9 -37 -15 -44 -35 -44 -19 0
-25 6 -27 30 -2 17 -8 34 -13 39 -11 12 -12 -8 -3 -53 5 -24 12 -31 30 -31 34
0 41 -20 7 -21 l-28 -1 30 -8 c29 -7 29 -8 -10 -10 l-40 -2 32 -8 c17 -4 43
-20 57 -36 14 -16 26 -24 26 -18 0 6 -7 17 -15 24 -34 28 -4 165 42 196 37 24
96 23 129 -2 30 -22 74 -120 94 -207 24 -103 51 -121 195 -131 120 -9 143 -11
404 -36 112 -11 207 -18 211 -15 4 2 10 55 13 117 8 153 23 214 64 254 17 18
46 35 62 39 47 10 135 -20 175 -60 37 -37 97 -153 102 -200 2 -16 12 -59 22
-95 23 -88 40 -96 237 -110 189 -13 689 -17 774 -6 l64 8 -22 -31 c-74 -103
-282 -127 -355 -40 l-25 29 -168 1 c-92 0 -220 4 -283 8 -63 3 -116 3 -118 -1
-15 -34 -56 -78 -96 -103 -47 -28 -55 -30 -156 -30 -101 0 -109 1 -148 29 -28
19 -51 47 -69 85 l-28 57 -160 18 c-88 9 -241 26 -340 36 -99 11 -191 21 -204
22 -21 3 -27 -4 -40 -43 -28 -80 -40 -92 -107 -100 -32 -4 -87 -4 -122 -1 -54
4 -66 9 -87 34 -27 32 -40 75 -50 163 -6 60 -7 60 -51 79 -28 11 -50 29 -59
46 -32 62 -35 44 -35 -199 l0 -241 1495 0 1495 0 0 20 c0 20 -5 21 -162 20
-90 0 -169 -1 -177 0 -8 0 12 24 45 54 45 42 69 56 102 61 62 9 107 31 152 71
39 35 40 38 39 98 l-1 61 -10 -43 c-10 -46 -80 -128 -98 -117 -6 4 -10 1 -10
-5 0 -7 -9 -9 -22 -5 -16 4 -19 3 -10 -3 11 -7 10 -10 -3 -16 -27 -10 -42 -7
-25 5 12 9 11 9 -5 3 -94 -36 -1033 -23 -1104 16 -21 11 -56 113 -47 136 3 8
16 14 28 13 22 -1 22 -1 -2 -8 -37 -10 184 -31 331 -31 196 0 501 13 489 20
-6 4 69 6 167 4 225 -3 296 4 301 30 3 16 0 18 -25 12 -88 -22 -803 -38 -1154
-26 -133 5 -145 7 -147 24 -1 17 4 18 61 11 165 -21 1101 -10 1208 14 28 6 43
5 58 -6 20 -14 21 -13 21 35 0 27 -7 67 -16 88 -10 22 -16 60 -15 87 3 62 -36
134 -77 143 -15 4 -34 13 -44 21 -30 27 -199 53 -653 103 -55 7 -110 18 -121
25 -12 8 -61 59 -110 115 -57 64 -112 115 -151 141 l-63 39 -210 0 c-115 0
-210 -4 -210 -9z m1599 -529 c14 -48 14 -82 0 -82 -6 0 -9 12 -6 28 2 15 2 21
0 15 -6 -17 -13 -16 -28 3 -8 11 -26 17 -54 17 -27 0 -38 3 -29 8 7 5 30 9 50
9 46 0 53 11 28 43 -29 36 -24 58 5 24 13 -15 29 -44 34 -65z m-79 49 c0 -20
-25 -35 -41 -25 -13 8 9 44 26 44 8 0 15 -9 15 -19z m-50 -93 c0 -12 -7 -10
-24 8 -9 8 -16 23 -16 32 0 13 5 11 20 -8 11 -14 20 -28 20 -32z m-573 -177
c13 -19 23 -38 23 -42 0 -5 -42 -9 -92 -9 -94 0 -409 18 -415 23 -1 2 3 18 9
35 l13 32 219 -2 220 -3 23 -34z m-2132 -106 c15 -14 25 -36 25 -53 0 -57 31
-136 69 -173 31 -31 46 -38 95 -44 70 -9 157 0 197 20 17 9 42 39 60 70 17 30
32 55 33 55 1 0 146 -16 322 -35 175 -19 322 -35 326 -35 8 0 55 -70 65 -96 4
-12 -83 -14 -621 -14 l-626 0 0 165 c0 142 2 165 15 165 9 0 27 -11 40 -25z
m1840 6 l40 -9 -35 0 c-19 0 -60 3 -90 8 l-55 7 50 1 c28 0 68 -3 90 -7z m232
-251 l143 0 32 -30 33 -29 -318 -1 c-340 0 -328 -2 -283 49 20 22 24 23 136
17 63 -3 179 -6 257 -6z"/>
<path d="M1131 1185 c-66 -12 -101 -39 -101 -74 1 -24 18 -98 42 -173 14 -45
27 -69 39 -73 10 -4 90 -1 176 5 87 6 199 12 248 13 82 3 79 3 -27 5 -131 2
-148 10 -148 68 0 32 2 34 35 34 l36 0 -16 30 c-18 34 -18 34 -45 18 -28 -18
-34 -6 -38 75 -3 40 -9 75 -16 79 -17 11 -112 8 -185 -7z m153 -37 c3 -13 7
-42 10 -66 2 -24 11 -51 19 -60 23 -27 11 -91 -20 -103 -37 -14 -159 -11 -170
4 -13 15 -39 99 -47 149 -9 53 6 65 119 91 11 3 35 5 52 6 26 1 34 -3 37 -21z"/>
<path d="M810 1147 c-30 -5 -49 -12 -43 -14 7 -3 36 0 63 6 28 6 73 11 101 11
42 0 51 -3 59 -22 5 -13 9 -18 9 -11 2 35 -11 43 -73 42 -33 -1 -86 -6 -116
-12z"/>
<path d="M1603 1108 c-55 -7 -73 -14 -73 -25 0 -13 -9 -15 -45 -11 -42 5 -58
-3 -35 -17 10 -6 53 -100 51 -110 -1 -3 8 -14 20 -24 28 -22 95 -18 155 10 54
26 93 24 134 -6 18 -14 35 -23 37 -21 3 2 -23 52 -57 110 -70 119 -55 111
-187 94z m127 -70 c11 -18 20 -35 20 -38 0 -3 -17 -11 -37 -17 -21 -6 -56 -18
-79 -27 -23 -8 -51 -12 -63 -9 -21 5 -51 49 -51 73 0 20 83 50 138 50 48 0 54
-2 72 -32z"/>
<path d="M1713 923 c-13 -3 -23 -9 -23 -15 0 -6 10 -8 23 -4 12 3 35 6 51 6
16 0 27 2 25 4 -9 7 -55 13 -76 9z"/>
<path d="M1625 870 c-7 -12 -14 -11 188 -15 158 -3 209 7 96 19 -96 10 -277 7
-284 -4z"/>
<path d="M290 825 c-35 -37 -14 -44 23 -7 22 22 27 32 16 32 -9 0 -26 -11 -39
-25z"/>
<path d="M1580 803 c0 -10 260 -26 269 -17 12 11 -18 16 -138 21 -85 4 -131 2
-131 -4z"/>
<path d="M1845 756 c-50 -50 -45 -105 14 -169 36 -38 42 -41 86 -38 32 2 45
-1 41 -8 -4 -6 -17 -11 -29 -12 -13 0 -16 -3 -9 -6 20 -8 61 17 68 41 10 32
14 106 5 106 -4 0 -13 -11 -19 -24 -9 -20 -15 -23 -43 -17 -18 4 -35 13 -37
20 -4 11 3 12 30 7 43 -8 48 -3 37 37 l-8 32 19 -24 c12 -13 20 -18 20 -10 -1
19 -29 51 -62 72 -39 24 -84 22 -113 -7z m92 -41 c5 -15 -21 -44 -39 -45 -12
0 -30 39 -23 50 10 16 55 12 62 -5z m-77 -70 c11 -21 19 -40 17 -41 -10 -10
-48 38 -53 66 -8 43 7 33 36 -25z"/>
<path d="M540 755 c-10 -12 -10 -21 -2 -40 14 -30 32 -32 39 -5 6 21 28 27 38
10 9 -15 25 -2 25 19 0 13 -8 18 -27 18 -16 0 -35 3 -44 7 -10 4 -21 1 -29 -9z"/>
<path d="M2410 756 c0 -2 17 -15 38 -27 20 -13 70 -47 110 -77 41 -29 76 -51
79 -48 8 8 -28 37 -124 101 -73 49 -103 64 -103 51z"/>
<path d="M2442 578 c6 -16 55 -34 65 -24 10 10 -26 36 -50 36 -10 0 -17 -5
-15 -12z"/>
<path d="M237 549 c-70 -41 -77 -263 -11 -334 66 -71 147 10 148 149 2 129
-69 224 -137 185z m67 -38 c14 -16 15 -23 6 -41 -6 -11 -9 -26 -6 -33 2 -7 5
-4 5 6 1 28 24 15 33 -19 12 -39 2 -137 -17 -174 -29 -57 -73 -50 -104 16 -58
123 11 325 83 245z"/>
<path d="M249 484 c-11 -13 -11 -20 2 -43 11 -19 13 -35 6 -63 -10 -41 -27
-51 -27 -17 0 13 4 18 12 13 7 -4 8 -3 4 4 -13 21 -26 13 -26 -16 0 -38 9 -46
31 -26 16 14 17 12 15 -38 -1 -42 2 -53 17 -56 13 -3 17 3 17 27 0 16 -5 33
-10 36 -7 4 -9 -2 -4 -19 4 -16 2 -26 -5 -26 -6 0 -11 13 -11 28 0 34 18 56
35 42 9 -7 17 -5 26 7 12 16 12 17 -2 6 -22 -18 -27 -8 -19 37 4 22 4 38 1 35
-18 -10 -35 16 -33 50 4 38 -7 45 -29 19z"/>
<path d="M1375 479 c-86 -76 -85 -278 2 -366 84 -83 189 0 201 158 6 83 -17
155 -63 204 -43 47 -89 48 -140 4z m133 -34 c52 -59 65 -146 37 -242 -10 -33
-26 -61 -46 -77 -28 -24 -33 -25 -62 -13 -36 15 -72 63 -87 116 -24 87 0 213
47 240 38 22 79 13 111 -24z"/>
<path d="M1415 446 c-17 -12 -18 -17 -7 -41 15 -33 36 -28 40 9 5 37 -9 50
-33 32z"/>
<path d="M1496 394 c-17 -45 4 -78 32 -51 13 13 13 21 4 42 -13 29 -27 32 -36
9z"/>
<path d="M1356 335 c-8 -23 -7 -47 3 -64 8 -12 12 -12 25 -2 21 18 20 44 -3
65 -17 15 -19 15 -25 1z m28 -21 c7 -18 0 -34 -15 -34 -5 0 -9 11 -9 25 0 28
15 34 24 9z"/>
<path d="M1432 338 c-15 -15 -16 -74 -2 -83 17 -11 40 15 40 45 0 34 -21 55
-38 38z"/>
<path d="M1490 230 c0 -29 19 -62 31 -55 5 4 9 11 9 16 0 6 -4 7 -10 4 -5 -3
-10 1 -10 9 0 9 0 19 -1 23 -1 16 20 13 25 -4 4 -15 5 -15 3 2 -3 29 -47 34
-47 5z"/>
<path d="M1406 196 c-15 -24 -14 -26 12 -46 l27 -22 3 22 c5 28 -6 70 -17 70
-5 0 -16 -11 -25 -24z m34 -27 c0 -20 -15 -26 -24 -10 -8 13 4 42 15 35 5 -3
9 -14 9 -25z"/>
<path d="M621 454 c-12 -26 -19 -49 -17 -52 8 -7 26 9 26 24 0 8 5 14 10 14 6
0 10 -9 10 -20 0 -15 7 -20 24 -20 14 0 28 5 31 10 10 15 35 12 35 -5 0 -8 5
-15 10 -15 6 0 10 26 10 58 l0 57 -35 -40 c-19 -22 -34 -43 -35 -47 0 -5 -4
-8 -10 -8 -15 0 -12 30 5 47 21 21 14 37 -18 41 -22 3 -28 -3 -46 -44z"/>
<path d="M799 469 c-29 -29 -23 -74 10 -74 13 0 26 5 28 12 3 7 -3 9 -16 6
-23 -6 -27 7 -11 38 6 11 21 19 35 19 14 0 25 5 25 10 0 18 -49 11 -71 -11z"/>
<path d="M869 444 c-11 -26 -18 -49 -15 -51 2 -2 19 -3 38 0 30 4 31 5 11 12
-28 9 -30 25 -3 25 11 0 20 5 20 10 0 6 -7 10 -16 10 -8 0 -12 5 -9 10 3 6 17
10 31 10 13 0 24 5 24 10 0 6 -14 10 -30 10 -27 0 -33 -6 -51 -46z"/>
<path d="M950 449 c-27 -60 -25 -69 10 -69 17 0 30 5 30 10 0 6 -7 10 -15 10
-18 0 -18 7 -4 49 17 49 2 49 -21 0z"/>
<path d="M1100 455 c-6 -14 -14 -36 -20 -50 -9 -23 -7 -25 20 -25 18 0 34 8
44 21 17 24 11 49 -11 49 -9 0 -13 6 -9 15 3 8 1 15 -5 15 -5 0 -14 -11 -19
-25z"/>
<path d="M1035 450 c-3 -5 0 -10 7 -10 7 0 2 -6 -12 -13 -14 -7 -26 -20 -28
-30 -3 -13 4 -17 26 -17 26 0 31 5 37 30 9 41 -12 69 -30 40z"/>
<path d="M2420 285 c0 -32 5 -47 18 -54 31 -17 52 5 52 54 0 57 -18 59 -22 3
-2 -24 -7 -43 -13 -43 -5 0 -11 19 -13 43 -4 56 -22 54 -22 -3z"/>
<path d="M2520 315 c-18 -21 -16 -66 4 -81 18 -13 56 -8 56 8 0 6 -9 8 -20 5
-26 -7 -47 19 -33 41 6 10 18 17 27 17 24 0 24 20 0 23 -11 2 -27 -4 -34 -13z"/>
<path d="M2590 310 c-9 -16 -6 -22 15 -36 26 -17 26 -37 0 -27 -8 3 -15 0 -15
-6 0 -6 11 -11 25 -11 20 0 25 5 25 24 0 13 -7 26 -15 30 -8 3 -15 10 -15 16
0 5 7 10 15 10 8 0 15 5 15 10 0 18 -39 10 -50 -10z"/>
<path d="M2660 280 c0 -48 1 -50 29 -50 30 0 49 26 32 43 -5 5 -7 16 -4 24 7
17 -13 33 -39 33 -15 0 -18 -9 -18 -50z"/>
<path d="M1877 229 c7 -7 36 -14 65 -16 49 -4 52 -3 34 11 -24 19 -117 23 -99
5z"/>
</g>
</svg>
