<?xml version="1.0" standalone="no"?>
<!DOCTYPE svg PUBLIC "-//W3C//DTD SVG 20010904//EN"
 "http://www.w3.org/TR/2001/REC-SVG-20010904/DTD/svg10.dtd">
<svg version="1.0" xmlns="http://www.w3.org/2000/svg"
 width="300.000000pt" height="323.000000pt" viewBox="0 0 300.000000 323.000000"
 preserveAspectRatio="xMidYMid meet">
<metadata>
Created by potrace 1.10, written by Peter Selinger 2001-2011
</metadata>
<g transform="translate(0.000000,323.000000) scale(0.100000,-0.100000)"
fill="#000000" stroke="none">
<path d="M1350 3220 c-26 -4 -35 -10 -37 -25 -3 -33 -19 -91 -36 -124 l-15
-31 28 0 c25 0 28 3 26 33 -1 25 3 33 19 35 11 1 29 -4 40 -12 16 -11 17 -17
7 -29 -11 -13 -6 -15 38 -15 27 0 50 4 50 9 0 5 -4 9 -8 9 -7 0 -64 112 -74
145 -2 6 -19 8 -38 5z m4 -56 c10 -26 7 -34 -13 -34 -14 0 -17 6 -13 25 5 28
17 33 26 9z"/>
<path d="M1642 3167 c-1 -33 -9 -73 -16 -89 -13 -25 -13 -28 2 -29 9 0 26 -2
37 -5 78 -16 104 -14 124 12 16 20 18 30 10 46 -6 10 -17 22 -25 25 -18 7 -18
23 1 23 8 0 19 9 24 19 15 28 -3 38 -79 46 -36 4 -67 8 -70 10 -3 1 -6 -24 -8
-58z m103 23 c8 -13 -13 -40 -31 -40 -14 0 -19 31 -7 43 10 10 31 8 38 -3z m1
-84 c8 -32 -2 -46 -32 -46 -21 0 -24 5 -24 35 0 31 3 35 25 35 18 0 26 -7 31
-24z"/>
<path d="M1178 3204 c-3 -3 -28 -8 -55 -12 -46 -7 -48 -8 -51 -42 l-2 -35 21
28 c11 15 24 27 28 27 10 0 34 -127 27 -145 -7 -18 -2 -18 48 -1 21 7 34 15
27 17 -9 3 -39 99 -41 132 0 13 37 7 50 -8 18 -22 23 -12 9 19 -11 24 -46 36
-61 20z"/>
<path d="M1923 3164 c8 -8 -80 -121 -100 -128 -20 -8 -9 -23 22 -28 21 -4 24
-2 20 12 -3 9 3 24 13 33 16 15 20 15 40 1 22 -15 31 -54 12 -54 -22 0 -8 -18
18 -22 15 -3 36 -9 46 -13 13 -6 17 -5 12 3 -4 6 -8 51 -10 99 -4 82 -5 88
-27 94 -32 9 -54 10 -46 3z m33 -87 c10 4 14 -2 14 -20 l0 -26 -26 24 c-15 14
-31 25 -36 25 -5 0 0 12 9 27 l18 27 3 -31 c2 -23 7 -30 18 -26z"/>
<path d="M971 3151 c-11 -7 -10 -13 4 -35 16 -23 16 -26 1 -26 -9 0 -25 9 -35
19 -19 19 -22 19 -60 4 -32 -12 -38 -19 -30 -32 20 -35 49 -114 49 -133 0 -15
4 -18 23 -12 29 9 34 14 21 22 -12 7 -38 54 -54 96 -11 29 -9 28 78 -17 43
-22 53 -32 49 -48 -6 -22 -3 -23 22 -9 17 9 17 12 -7 62 -14 29 -26 68 -26 85
-1 33 -10 40 -35 24z"/>
<path d="M2110 3091 c0 -24 -47 -122 -64 -133 -6 -4 -8 -8 -6 -10 3 -2 20 -11
38 -21 32 -18 32 -18 32 3 0 26 17 60 30 60 15 0 12 -78 -2 -83 -7 -2 5 -13
28 -25 l41 -21 -4 66 c-4 55 -2 65 10 60 18 -7 52 27 42 43 -5 8 -91 57 -137
78 -5 2 -8 -6 -8 -17z m74 -37 c9 -3 16 -12 16 -19 0 -19 -28 -38 -45 -31 -12
4 -13 10 -3 31 13 28 11 27 32 19z"/>
<path d="M692 3018 c-19 -12 -29 -24 -24 -27 13 -8 26 -81 26 -138 0 -49 2
-50 35 -24 20 15 21 19 7 24 -9 4 -16 18 -16 32 0 24 3 26 38 23 30 -2 36 -7
34 -22 -3 -17 0 -16 37 5 23 12 41 25 41 28 0 4 -12 12 -27 19 -33 14 -103 78
-103 92 0 14 -10 11 -48 -12z m41 -89 c-18 -6 -31 10 -32 40 -1 10 7 7 24 -9
24 -22 24 -25 8 -31z"/>
<path d="M1399 2996 c-2 -2 -29 -6 -59 -10 -30 -3 -66 -8 -80 -11 -14 -3 -34
-7 -46 -9 -56 -11 -216 -71 -283 -106 -338 -176 -565 -465 -650 -830 -27 -114
-31 -148 -32 -265 0 -177 17 -280 77 -448 33 -92 41 -107 64 -107 24 0 25 8 6
35 -37 53 -90 241 -103 360 -54 524 201 995 666 1229 81 41 226 91 292 101 24
4 47 9 51 12 5 2 69 6 143 9 118 4 160 1 297 -22 15 -3 58 -14 95 -25 38 -11
76 -21 86 -22 31 -2 18 -17 -67 -72 -170 -109 -174 -157 -45 -563 29 -92 30
-118 3 -108 -9 3 -14 -1 -14 -13 0 -14 6 -17 25 -14 19 4 27 -1 37 -22 11 -25
10 -29 -11 -46 -13 -10 -27 -17 -31 -14 -4 3 -20 -17 -34 -45 -15 -29 -22 -51
-16 -55 6 -3 10 -1 10 4 0 6 10 11 23 11 15 0 18 3 9 8 -17 11 -1 57 23 66 30
11 43 6 49 -18 3 -13 8 -31 12 -39 4 -10 -5 -16 -30 -21 -20 -4 -36 -13 -36
-19 0 -7 -5 -18 -12 -25 -9 -9 -16 -8 -31 5 -18 17 -18 16 1 -32 11 -27 24
-51 29 -52 13 -5 35 46 28 66 -3 11 3 25 15 36 20 18 21 18 41 -2 17 -17 19
-24 10 -42 -7 -11 -18 -21 -27 -21 -8 0 -20 -11 -26 -25 -6 -13 -19 -27 -29
-30 -20 -7 -72 -92 -60 -99 10 -6 24 5 42 33 8 13 35 32 59 41 24 9 46 23 48
31 2 9 1 10 -5 3 -4 -6 -21 -14 -36 -18 -32 -8 -30 1 6 42 23 25 47 29 47 7 0
-8 4 -15 10 -15 5 0 7 -7 4 -15 -4 -9 -1 -15 7 -15 9 0 10 -3 2 -11 -8 -8 -7
-18 3 -37 12 -24 11 -29 -8 -49 -25 -26 -46 -30 -54 -8 -4 8 -13 15 -21 15
-12 0 -13 -3 -3 -15 17 -21 3 -35 -35 -35 -28 0 -37 -6 -50 -30 -8 -16 -21
-33 -29 -37 -11 -7 -56 -83 -56 -97 0 -2 13 1 30 7 21 8 37 26 55 64 25 54 45
70 120 93 22 7 48 22 57 34 l18 21 0 -27 c0 -15 5 -30 10 -33 20 -12 10 -24
-12 -14 -17 7 -38 5 -83 -8 -57 -18 -61 -21 -90 -78 -25 -47 -38 -61 -63 -69
-18 -5 -32 -15 -32 -23 0 -7 -14 -40 -30 -73 -17 -33 -26 -60 -20 -60 6 0 13
7 16 15 3 8 14 17 24 20 11 3 17 12 14 19 -3 8 2 30 10 51 11 27 20 35 31 31
9 -3 13 -2 10 4 -3 6 -1 10 4 10 6 0 11 -8 11 -17 0 -10 11 1 25 26 14 24 23
51 20 61 -10 33 62 80 123 80 52 0 65 -26 27 -56 -22 -17 -24 -22 -11 -27 9
-4 16 -16 16 -28 0 -12 3 -19 8 -15 4 4 7 24 7 43 0 20 5 38 12 40 8 3 12 -7
11 -29 -2 -70 -5 -75 -63 -93 -61 -20 -94 -40 -83 -51 9 -9 54 -8 92 1 40 11
26 -11 -21 -30 -24 -10 -40 -12 -53 -5 -29 15 -35 13 -53 -25 -21 -44 -59 -61
-103 -46 -22 8 -40 8 -57 2 -24 -9 -25 -13 -15 -41 11 -32 5 -51 -11 -34 -5 5
-14 26 -20 46 -11 34 -9 42 22 105 27 53 33 73 26 91 -7 19 0 41 35 109 l44
84 -27 78 c-21 64 -31 80 -53 89 -29 11 -39 47 -18 68 7 7 7 20 -1 41 -9 27
-7 38 15 81 25 50 25 65 0 55 -9 -3 -14 2 -14 16 0 22 30 31 30 9 1 -7 6 -3
13 9 12 22 13 22 25 3 7 -11 16 -20 22 -20 13 0 0 33 -17 43 -7 4 -13 23 -13
41 0 35 -31 61 -66 54 -29 -5 -66 -67 -59 -99 4 -19 1 -30 -9 -36 -13 -7 -14
-14 -4 -41 11 -28 9 -38 -14 -85 -19 -39 -23 -58 -16 -71 8 -14 16 -5 44 56
33 68 35 75 24 114 -9 31 -9 47 -1 63 7 12 9 26 6 31 -10 16 5 49 25 55 28 9
60 -12 60 -38 0 -29 -18 -47 -46 -47 -29 0 -34 -17 -18 -63 13 -35 11 -42 -16
-99 -17 -34 -30 -67 -30 -74 0 -29 42 -124 55 -124 8 0 19 -9 25 -21 10 -17 4
-36 -34 -115 -40 -81 -45 -96 -34 -114 10 -16 10 -22 -3 -36 -13 -13 -15 -22
-7 -48 8 -26 6 -40 -10 -71 -19 -39 -19 -40 -1 -94 22 -64 24 -81 6 -81 -7 0
-21 24 -30 53 -18 56 -23 117 -9 117 4 0 12 13 18 29 13 32 -3 74 -31 85 -24
9 -15 59 11 70 17 7 84 120 84 140 0 2 -9 6 -20 9 -21 5 -28 45 -11 62 14 15
-13 71 -38 78 l-21 5 20 -25 c14 -17 20 -41 20 -72 0 -26 4 -51 9 -56 14 -16
1 -75 -15 -68 -10 3 -12 0 -8 -10 3 -10 -3 -20 -18 -28 -21 -11 -22 -11 -9 4
9 11 10 17 2 17 -6 0 -11 -4 -11 -8 0 -5 -7 -17 -16 -28 -15 -19 -15 -18 -11
4 3 12 1 20 -4 16 -5 -3 -9 5 -9 18 0 13 -6 30 -12 37 -10 11 -10 14 0 18 17
6 15 23 -3 23 -9 0 -12 6 -8 16 3 8 0 26 -7 40 -10 18 -11 30 -2 49 7 14 12
39 12 55 0 16 4 31 9 35 15 9 -6 68 -31 86 -13 11 -19 22 -15 33 4 9 3 14 -2
11 -13 -7 -23 28 -15 49 3 9 12 16 19 16 9 0 11 8 8 21 -4 14 0 26 11 34 14
11 15 14 1 25 -17 14 -20 40 -6 40 6 0 16 -9 24 -20 8 -11 17 -17 20 -13 4 4
-2 17 -14 29 -12 13 -19 30 -16 38 4 9 2 16 -4 16 -5 0 -14 11 -20 24 -13 28
-52 48 -76 39 -10 -3 -30 -17 -44 -30 l-26 -24 -12 45 c-6 25 -11 80 -11 124
0 125 4 129 270 262 126 63 222 109 312 149 42 18 63 47 25 35 -57 -18 -565
-275 -584 -295 -64 -71 -63 -165 1 -394 26 -93 58 -201 70 -240 13 -38 37
-113 54 -165 16 -52 49 -153 72 -225 37 -113 41 -137 36 -189 -7 -71 -45 -144
-95 -184 -20 -16 -96 -60 -170 -98 -106 -54 -130 -70 -115 -76 15 -6 13 -7 -6
-4 -18 4 -74 -18 -189 -74 -90 -44 -168 -80 -173 -80 -6 0 -6 -6 2 -14 10 -13
23 -10 88 20 114 53 562 255 597 269 121 51 448 206 476 225 16 12 42 50 60
86 25 53 30 75 27 112 -3 26 -41 166 -86 312 -160 526 -181 596 -195 653 -18
69 -16 150 4 192 18 37 195 158 222 151 10 -2 57 -26 103 -53 287 -162 493
-432 581 -760 24 -89 27 -116 27 -285 1 -138 4 -188 13 -188 23 0 28 26 30
155 1 92 -4 159 -17 230 -26 140 -26 140 -56 219 -144 382 -438 656 -830 774
-39 12 -88 24 -110 27 -21 3 -54 8 -72 11 -41 6 -248 15 -253 10z m23 -713
c20 -18 24 -53 8 -69 -7 -7 -7 -20 1 -41 9 -26 7 -38 -14 -80 l-25 -48 39
-109 c30 -87 36 -113 27 -129 -10 -19 -11 -19 -20 -3 -5 10 -8 20 -5 23 3 2
-1 20 -9 39 -8 18 -25 68 -38 109 l-24 75 23 47 c25 49 21 93 -9 93 -16 0 -46
37 -46 57 0 19 37 53 57 53 9 0 25 -7 35 -17z m-52 -118 c12 -14 5 -55 -10
-55 -10 0 -20 25 -20 51 0 23 13 25 30 4z m356 -463 c6 -15 7 -34 4 -42 -4 -8
-22 -43 -39 -77 -19 -38 -31 -77 -31 -102 0 -22 -6 -46 -14 -53 -8 -8 -16 -23
-19 -34 -3 -10 -4 24 -3 76 3 87 7 102 42 177 21 46 41 83 44 83 3 0 10 -13
16 -28z m14 -419 c7 -6 -23 -23 -42 -23 -18 0 -24 20 -11 33 6 7 42 0 53 -10z
m-201 -64 c13 -39 14 -49 2 -49 -13 0 -38 53 -33 68 7 21 20 13 31 -19z m-39
-44 c0 -15 -37 -35 -63 -35 -13 0 42 49 56 50 4 0 7 -7 7 -15z"/>
<path d="M1370 2255 c-10 -12 -10 -18 0 -30 12 -14 15 -14 31 1 14 13 16 20 8
31 -15 17 -24 17 -39 -2z"/>
<path d="M2335 2980 c8 -13 -75 -128 -95 -132 -10 -2 -5 -10 16 -23 17 -11 50
-33 73 -49 45 -32 65 -29 83 9 9 21 9 31 0 46 -16 25 -15 32 4 25 16 -6 54 9
54 23 0 8 -125 111 -135 111 -4 0 -3 -5 0 -10z m76 -93 c-5 -5 -22 -7 -36 -3
-26 7 -27 8 -9 27 16 18 18 18 36 2 12 -10 15 -20 9 -26z m-31 -38 c0 -38 -37
-60 -69 -40 -11 7 -9 14 9 39 19 25 27 29 42 21 10 -5 18 -14 18 -20z"/>
<path d="M507 2887 c-81 -69 -42 -132 60 -95 45 16 66 -2 37 -33 -15 -17 -27
-20 -58 -16 l-39 6 26 -27 26 -26 38 31 c21 16 45 42 53 56 13 24 13 30 0 54
-18 32 -38 34 -94 10 -49 -21 -48 -21 -44 6 2 18 10 23 41 25 38 3 38 4 21 23
-22 25 -22 25 -67 -14z"/>
<path d="M1309 2890 c-131 -24 -199 -45 -298 -91 -397 -185 -648 -561 -675
-1010 -3 -46 6 -157 19 -244 8 -56 55 -205 85 -273 37 -82 150 -252 168 -252
7 0 11 -4 8 -9 -8 -13 21 -34 39 -27 9 3 12 12 8 22 -6 16 -7 16 -14 -2 -7
-17 -8 -17 -8 4 -1 13 5 22 14 22 8 0 15 5 15 11 0 5 4 8 9 4 9 -5 51 45 51
62 0 4 -5 0 -11 -10 -6 -9 -15 -15 -20 -11 -5 3 -8 2 -7 -3 3 -8 -5 -13 -23
-13 -5 0 -8 3 -6 8 3 4 -8 8 -24 9 -16 1 -29 -2 -29 -6 0 -5 8 -8 17 -7 23 1
29 -32 8 -41 -12 -4 -21 1 -28 13 -6 10 -24 31 -40 47 -28 26 -29 28 -13 52 9
14 12 25 7 25 -5 0 -13 -4 -16 -10 -10 -15 -35 -12 -35 5 0 8 4 15 9 15 5 0 7
10 4 22 -4 19 -3 20 6 8 10 -13 11 -13 11 0 0 8 -4 21 -9 28 -6 10 -10 9 -14
-7 -3 -12 -10 -21 -16 -21 -15 0 -14 37 2 43 9 3 9 8 -2 18 -8 8 -11 10 -9 4
3 -5 -1 -16 -9 -24 -13 -12 -14 -11 -8 8 4 15 2 21 -8 21 -17 0 -28 32 -17 50
4 7 0 20 -11 31 -11 11 -19 28 -19 40 0 11 -4 17 -10 14 -5 -3 -7 0 -4 8 3 8
1 18 -5 22 -6 3 -8 17 -5 32 5 19 4 24 -5 19 -8 -5 -10 1 -6 23 3 20 1 31 -6
31 -6 0 -9 9 -6 20 3 11 2 20 -1 20 -12 0 -14 226 -3 306 32 227 142 465 282
610 27 29 49 57 49 63 0 7 6 11 13 10 27 -3 35 2 30 21 -4 15 0 20 15 20 22 0
72 43 72 62 0 5 7 8 15 4 8 -3 20 1 27 8 36 35 143 86 308 146 60 22 242 41
251 27 4 -5 10 0 14 12 3 12 11 19 16 15 6 -3 4 -16 -6 -31 -9 -14 -14 -28
-10 -31 3 -4 10 0 15 8 7 11 10 11 11 3 2 -22 4 -27 17 -49 14 -25 7 -34 -25
-34 -21 0 -24 4 -20 28 2 15 2 22 0 15 -3 -9 -52 -35 -73 -39 -3 0 -32 -4 -65
-9 -236 -31 -508 -208 -655 -425 -22 -32 -36 -60 -33 -64 4 -3 2 -6 -3 -6 -12
0 -59 -80 -47 -80 4 0 3 -4 -2 -8 -17 -12 -48 -89 -41 -101 4 -6 3 -11 -2 -11
-5 0 -17 -31 -26 -68 -20 -85 -30 -332 -13 -332 9 0 11 25 9 84 -14 367 215
737 562 906 135 66 232 91 384 97 l122 6 118 57 117 57 -40 11 c-117 31 -309
36 -446 12z m239 -8 c18 -12 -1 -57 -25 -59 -27 -2 -48 33 -31 52 15 16 37 19
56 7z m72 -4 c0 -10 3 -9 9 1 6 9 11 10 15 2 4 -6 11 -9 16 -6 12 8 41 -6 34
-16 -3 -5 2 -9 11 -9 9 0 13 5 10 10 -3 6 4 10 17 10 22 0 22 -1 -6 -19 -17
-11 -33 -18 -38 -15 -4 3 -8 1 -8 -4 0 -11 -68 -42 -97 -45 -12 0 -20 -4 -17
-8 7 -12 -17 -23 -25 -12 -3 6 -17 16 -31 23 -23 12 -24 14 -5 20 11 4 24 4
30 -1 15 -14 45 -10 45 5 0 8 -4 17 -10 21 -5 3 0 17 12 30 24 27 38 32 38 13z"/>
<path d="M1600 2867 c0 -9 6 -17 13 -17 8 0 7 -4 -3 -10 -8 -5 -11 -10 -6 -10
5 0 3 -7 -4 -15 -9 -11 -9 -15 -1 -15 6 0 14 7 17 15 3 8 14 17 25 20 24 8 25
25 1 25 -10 0 -23 5 -30 12 -9 9 -12 8 -12 -5z"/>
<path d="M1900 2784 c-19 -14 -34 -30 -32 -35 1 -6 -2 -8 -7 -4 -11 6 -61 -22
-61 -35 0 -5 10 -12 23 -15 116 -35 284 -140 383 -240 217 -221 317 -517 278
-822 -7 -54 -15 -108 -18 -120 -3 -13 -1 -23 5 -23 5 0 9 11 9 24 0 30 8 36
34 27 19 -7 19 -8 -2 -22 -13 -10 -18 -20 -12 -28 10 -17 31 -5 24 13 -3 7 2
13 11 13 8 0 15 -4 15 -9 0 -5 7 -2 16 6 17 18 44 21 44 6 0 -5 -5 -10 -11
-10 -12 0 -39 -25 -39 -35 0 -4 9 -5 20 -2 15 4 20 0 20 -13 0 -11 -4 -22 -10
-25 -5 -3 -10 -17 -10 -30 0 -13 -4 -26 -9 -30 -5 -3 -13 -20 -16 -37 -9 -40
-45 -89 -58 -81 -6 3 -7 1 -3 -5 9 -15 -13 -27 -27 -13 -17 17 -24 13 -22 -14
4 -28 -15 -34 -34 -11 -8 10 -9 16 -1 21 20 12 11 26 -10 15 -11 -6 -24 -8
-29 -5 -5 3 -20 -12 -32 -32 -13 -21 -26 -40 -29 -43 -3 -3 -13 -16 -22 -29
-23 -33 -134 -148 -150 -154 -9 -4 -7 -6 4 -6 9 -1 22 7 27 16 9 15 12 15 20
4 6 -9 11 -10 15 -2 4 6 3 11 -3 11 -6 0 7 18 28 40 21 22 43 40 49 40 7 0 12
6 12 14 0 8 6 21 13 28 7 7 16 21 20 31 3 9 10 17 14 16 22 -4 43 2 43 12 0 5
-4 7 -10 4 -5 -3 -15 -3 -20 0 -14 9 17 38 33 32 8 -4 7 -6 -3 -6 -9 -1 -5 -6
10 -14 14 -7 26 -18 26 -25 3 -26 5 -26 19 -8 11 15 15 16 15 5 0 -8 -5 -20
-12 -27 -7 -7 -8 -12 -2 -12 17 0 33 22 27 37 -3 9 5 24 18 36 50 45 82 87 84
112 2 14 8 32 15 40 12 15 27 61 38 120 6 32 4 43 -10 58 -10 10 -18 12 -18 5
0 -6 -3 -9 -6 -5 -3 3 -3 11 2 18 5 9 11 7 20 -6 8 -10 17 -16 20 -12 26 25
26 301 1 427 -30 148 -90 293 -173 421 -96 146 -288 315 -451 398 -53 26 -60
26 -103 -5z m65 -5 c-4 -5 -1 -9 6 -9 6 0 9 -8 6 -19 -2 -10 -1 -25 4 -32 6
-10 9 -5 9 14 0 21 4 28 17 25 9 -2 18 -9 21 -16 2 -8 -3 -10 -15 -6 -14 4
-15 4 -4 -4 7 -5 10 -15 7 -21 -4 -6 0 -19 9 -28 13 -13 14 -18 3 -25 -9 -7
-8 -8 7 -6 14 2 20 11 20 30 1 19 -3 24 -14 20 -11 -4 -13 -1 -8 12 4 10 7 22
7 27 0 18 18 9 23 -12 4 -15 11 -20 22 -15 9 3 14 2 11 -2 -8 -13 7 -27 54
-47 45 -20 230 -189 230 -211 0 -15 46 -64 60 -64 5 0 10 -11 10 -24 0 -14 4
-28 10 -31 14 -8 85 -159 108 -230 11 -33 26 -89 32 -125 6 -36 14 -72 16 -80
10 -30 9 -200 -1 -203 -6 -2 -4 -11 4 -21 13 -15 12 -16 -12 -7 -18 7 -27 7
-30 -2 -2 -8 -10 -5 -23 7 -19 19 -19 19 -28 -7 -10 -29 -26 -36 -26 -13 0 8
6 16 13 19 9 3 9 9 -1 26 -7 12 -8 21 -2 21 5 0 10 -5 10 -11 0 -6 7 -4 15 5
16 15 21 31 7 22 -13 -8 -29 7 -36 36 -5 21 -1 30 15 41 21 15 21 15 1 35 -13
13 -19 30 -17 51 1 17 -1 34 -6 37 -5 3 -7 10 -4 15 18 28 -102 305 -175 403
-47 64 -186 206 -202 206 -5 0 -8 6 -5 14 3 8 -3 22 -14 32 -11 10 -19 12 -19
6 0 -19 -20 -14 -21 6 0 14 -2 14 -9 -3 -5 -11 -9 -14 -9 -7 -1 6 -8 12 -16
12 -10 0 -15 11 -16 33 -1 17 -3 24 -6 15 -4 -17 -13 -21 -30 -15 -5 1 -7 8
-5 15 2 6 -4 12 -13 12 -10 0 -13 -5 -9 -11 4 -7 1 -10 -7 -7 -8 3 -14 9 -14
15 0 14 -31 43 -39 36 -3 -3 2 -12 12 -19 16 -12 16 -13 0 -14 -9 0 -21 7 -26
16 -5 9 -13 15 -18 14 -5 -1 -10 4 -12 10 -3 7 5 10 19 8 17 -2 27 4 34 20 5
12 15 22 22 22 7 0 13 4 13 8 0 4 9 8 20 9 11 1 18 -2 15 -8z m598 -1127 c10
-10 14 -22 10 -25 -3 -4 1 -7 10 -7 10 0 16 5 15 11 -2 6 2 13 8 16 16 5 15
-44 -1 -57 -9 -7 -16 -6 -25 5 -10 12 -15 13 -21 4 -6 -10 -12 -10 -26 2 -17
13 -17 13 -4 -4 8 -11 21 -15 32 -12 20 7 27 -9 9 -20 -5 -3 -7 -12 -3 -20 3
-8 0 -15 -6 -15 -7 0 -14 6 -17 14 -3 9 -12 12 -21 9 -11 -4 -14 -2 -9 5 4 7
2 12 -4 12 -6 0 -8 5 -5 10 3 6 2 10 -3 10 -18 0 0 38 20 43 14 4 19 11 15 21
-9 22 6 20 26 -2z"/>
<path d="M2561 1778 c-1 -9 -7 -19 -13 -21 -7 -3 -4 -6 8 -6 31 -1 36 -12 14
-28 -11 -8 -20 -20 -20 -26 0 -8 3 -7 9 2 5 8 16 11 25 8 18 -7 23 27 5 38 -6
4 -14 17 -19 29 -6 15 -9 17 -9 4z"/>
<path d="M2560 2793 c0 -12 -124 -63 -154 -63 -18 0 -17 -2 4 -25 24 -25 24
-25 32 -5 10 26 44 26 58 -1 14 -25 6 -49 -15 -49 -21 0 -20 -4 20 -47 32 -35
35 -36 35 -15 0 28 55 138 72 145 9 3 2 16 -19 38 -18 19 -33 28 -33 22z m-10
-52 c0 -6 -4 -13 -10 -16 -5 -3 -10 -11 -10 -16 0 -6 5 -7 10 -4 13 8 13 -16
-1 -35 -9 -13 -10 -13 -6 0 2 8 -4 26 -15 39 -14 19 -16 26 -6 33 18 11 38 10
38 -1z"/>
<path d="M1145 2655 c4 -11 24 -67 44 -124 19 -56 37 -98 39 -92 5 14 -65 212
-80 226 -8 7 -9 5 -3 -10z"/>
<path d="M1334 2655 c-26 -19 1 -20 36 0 23 13 23 14 4 15 -11 0 -29 -7 -40
-15z"/>
<path d="M275 2642 c-43 -81 -47 -92 -41 -116 9 -37 62 -68 105 -62 38 6 63
25 90 71 19 32 19 32 -4 61 l-24 29 6 -41 c5 -37 2 -44 -21 -59 -56 -37 -134
20 -104 78 5 10 20 17 38 17 39 0 38 15 -1 29 -18 6 -32 11 -33 11 -1 0 -6 -8
-11 -18z"/>
<path d="M1107 2640 c-9 -11 -29 -20 -44 -20 -26 0 -26 -1 -10 -17 14 -14 20
-15 42 -3 13 7 27 22 31 32 8 28 1 31 -19 8z"/>
<path d="M1208 2643 c-22 -25 -7 -63 26 -63 35 0 57 25 47 53 -10 28 -52 34
-73 10z m60 -21 c4 -13 -45 -28 -56 -17 -8 8 28 37 42 32 5 -2 11 -8 14 -15z"/>
<path d="M1780 2636 c0 -8 5 -18 10 -21 15 -9 12 -25 -5 -25 -8 0 -15 -4 -15
-10 0 -20 31 -9 42 15 8 19 8 28 -2 40 -16 19 -30 19 -30 1z"/>
<path d="M1844 2634 c-3 -10 -17 -45 -30 -78 -36 -87 -22 -79 16 9 18 41 30
78 27 82 -4 3 -9 -3 -13 -13z"/>
<path d="M2690 2636 c0 -18 -116 -90 -130 -81 -15 10 -12 -4 10 -40 l20 -33
30 30 c36 36 56 29 35 -12 -8 -16 -22 -33 -30 -37 -12 -7 -11 -15 9 -55 13
-25 26 -56 30 -69 4 -14 9 -19 13 -11 2 6 18 12 34 12 23 0 29 -4 29 -22 0
-32 -15 -52 -34 -45 -19 8 -20 3 -3 -45 15 -43 27 -59 27 -35 0 17 107 107
127 107 9 0 10 7 4 23 -5 12 -12 31 -16 41 -3 12 -9 16 -15 10 -5 -5 -43 -8
-85 -6 -90 4 -98 13 -64 76 21 41 25 44 56 39 49 -8 50 14 3 95 -43 74 -50 82
-50 58z m44 -82 c3 -9 4 -20 0 -25 -8 -14 -40 -11 -53 5 -10 11 -8 17 6 25 26
15 40 13 47 -5z m82 -218 c8 -8 10 -17 5 -20 -5 -4 -11 0 -14 6 -3 10 -10 8
-26 -6 -21 -19 -21 -19 -21 7 0 21 5 27 21 27 11 0 27 -6 35 -14z"/>
<path d="M1014 2594 c3 -9 6 -20 6 -25 0 -5 7 -9 15 -9 12 0 13 4 3 25 -12 27
-34 35 -24 9z"/>
<path d="M1102 2582 c-32 -16 -37 -32 -12 -40 7 -3 10 0 6 7 -6 9 16 16 27 9
8 -6 36 25 31 33 -7 12 -13 11 -52 -9z"/>
<path d="M1855 2589 c-4 -5 -3 -19 0 -30 6 -17 9 -18 15 -8 7 11 13 10 30 -6
15 -14 23 -16 32 -7 13 13 15 12 -34 40 -22 12 -40 17 -43 11z"/>
<path d="M953 2568 c-38 -23 -42 -38 -12 -38 11 0 18 4 15 9 -4 5 6 19 21 30
36 26 18 26 -24 -1z"/>
<path d="M1960 2553 c-39 -65 -121 -223 -116 -223 2 0 23 35 47 78 23 42 54
95 69 117 39 58 42 65 32 65 -6 0 -20 -17 -32 -37z"/>
<path d="M1116 2524 c-20 -19 -20 -38 -1 -54 12 -10 20 -9 40 4 26 17 29 24
19 50 -8 20 -38 21 -58 0z m54 -14 c0 -14 -39 -32 -52 -24 -7 5 -5 11 7 21 22
15 45 17 45 3z"/>
<path d="M1826 2518 c-8 -11 -12 -27 -9 -34 3 -8 0 -14 -6 -14 -6 0 -11 -4
-11 -10 0 -5 8 -10 19 -10 10 0 25 -7 32 -17 13 -15 11 -16 -13 -9 -30 7 -36
-2 -16 -22 9 -9 16 -8 30 5 21 19 23 39 6 46 -7 3 -3 6 9 6 32 1 47 34 25 53
-31 27 -51 28 -66 6z m53 -21 c6 -8 8 -17 5 -20 -8 -7 -54 14 -54 25 0 13 36
9 49 -5z"/>
<path d="M986 2506 c-28 -23 -29 -46 -1 -46 9 0 12 6 9 15 -4 9 3 19 20 26 14
7 23 16 20 20 -8 13 -16 11 -48 -15z"/>
<path d="M1970 2494 c0 -20 4 -25 16 -20 10 4 25 -1 34 -9 14 -13 20 -13 26
-4 4 8 -3 21 -20 36 -36 31 -56 30 -56 -3z"/>
<path d="M2050 2439 c-81 -104 -109 -143 -110 -154 0 -5 12 8 27 30 14 22 50
66 80 98 54 59 80 97 66 96 -4 0 -33 -32 -63 -70z"/>
<path d="M838 2476 c-32 -26 -37 -49 -10 -44 9 2 16 10 14 17 -1 7 8 21 20 31
13 11 19 19 13 20 -5 0 -22 -11 -37 -24z"/>
<path d="M2128 2484 c-26 -25 19 -89 54 -78 12 3 18 2 15 -3 -4 -5 0 -10 8
-10 8 0 15 4 15 9 0 4 -4 8 -10 8 -5 0 -10 7 -10 16 0 14 -3 14 -15 4 -14 -11
-19 -7 -16 12 0 4 -6 5 -13 2 -10 -4 -16 3 -18 21 -2 15 -6 23 -10 19z"/>
<path d="M1082 2475 c12 -39 44 -105 50 -105 4 0 4 10 -1 23 -9 24 -56 101
-49 82z"/>
<path d="M1023 2445 c-26 -23 -26 -26 -10 -36 9 -5 17 -18 17 -28 0 -31 23
-43 48 -25 42 29 18 79 -26 55 -15 -8 -21 -7 -25 3 -3 8 5 18 19 25 13 6 24
15 24 21 0 17 -17 11 -47 -15z m67 -55 c0 -9 -31 -30 -44 -30 -12 0 -6 28 7
33 20 9 37 8 37 -3z"/>
<path d="M1157 2454 c-26 -14 -29 -34 -6 -34 6 0 7 4 4 10 -3 5 6 12 20 16 14
3 25 10 25 15 0 12 -10 11 -43 -7z"/>
<path d="M160 2436 c-14 -39 -13 -48 8 -36 12 8 30 6 66 -7 62 -23 78 -45 51
-72 -20 -19 -21 -19 -74 2 -31 13 -57 31 -62 42 -7 20 -7 20 -14 0 -4 -11 -11
-30 -16 -43 -12 -30 -11 -33 4 -30 6 1 38 -8 69 -21 66 -27 80 -24 108 21 38
63 24 94 -57 124 -27 9 -53 24 -60 32 -11 13 -14 11 -23 -12z"/>
<path d="M1934 2449 c-3 -6 -1 -16 5 -22 6 -6 11 -7 11 -2 0 4 9 0 19 -9 11
-10 25 -15 32 -10 9 5 7 11 -7 21 -37 28 -53 33 -60 22z"/>
<path d="M895 2442 c3 -3 -5 -16 -17 -29 -16 -18 -19 -26 -10 -35 8 -8 14 -5
21 15 6 15 15 27 21 27 5 0 10 6 10 13 0 8 -7 14 -15 14 -8 0 -13 -3 -10 -5z"/>
<path d="M982 2396 c18 -24 39 -52 46 -62 10 -16 10 -15 1 6 -20 42 -61 100
-71 100 -5 0 6 -20 24 -44z"/>
<path d="M2080 2420 c0 -5 0 -12 0 -15 0 -3 3 -5 8 -6 4 0 16 -9 28 -20 31
-29 38 -9 7 23 -28 29 -43 35 -43 18z"/>
<path d="M1166 2405 c-23 -18 -15 -70 10 -61 9 3 19 6 24 6 12 0 21 31 15 51
-7 22 -23 24 -49 4z m37 -36 c-13 -13 -43 -5 -43 10 0 13 33 20 45 9 5 -5 5
-12 -2 -19z"/>
<path d="M1899 2394 c-16 -19 -3 -43 29 -55 19 -7 25 -4 34 17 11 22 9 28 -7
40 -25 18 -40 18 -56 -2z m51 -29 c0 -8 -4 -15 -8 -15 -13 0 -32 23 -32 37 0
11 5 11 20 3 11 -6 20 -17 20 -25z"/>
<path d="M735 2370 c-17 -33 -13 -50 12 -50 12 0 13 3 4 14 -8 10 -9 16 -2 21
6 3 16 15 21 26 8 15 7 19 -4 19 -9 0 -23 -14 -31 -30z"/>
<path d="M810 2392 c0 -6 6 -12 12 -14 8 -3 4 -9 -10 -17 -12 -6 -22 -19 -22
-29 0 -14 2 -14 9 -3 5 8 16 11 25 8 14 -5 15 -11 6 -27 -6 -12 -18 -24 -26
-27 -7 -3 -11 -9 -8 -15 7 -11 54 30 54 48 0 6 -7 17 -15 24 -11 9 -12 16 -5
25 7 9 6 16 -5 25 -9 7 -15 8 -15 2z"/>
<path d="M916 2378 c-19 -27 -20 -42 -3 -57 10 -8 17 -7 26 2 11 10 12 8 7 -9
-8 -25 14 -47 37 -38 9 3 19 14 22 24 8 25 -5 52 -22 46 -9 -4 -13 0 -11 12 7
42 -31 56 -56 20z m44 -12 c0 -19 -27 -39 -40 -31 -8 5 -6 13 6 26 20 22 34
25 34 5z m40 -44 c0 -5 -8 -17 -19 -26 -15 -14 -19 -14 -24 -3 -3 8 0 20 6 26
13 13 37 15 37 3z"/>
<path d="M2030 2375 c-13 -16 -6 -47 16 -66 24 -20 29 -1 6 24 -12 13 -19 27
-15 30 13 14 24 6 38 -25 11 -28 15 -30 21 -15 4 12 -1 26 -16 43 -27 28 -33
29 -50 9z"/>
<path d="M2226 2364 c-9 -23 -8 -27 9 -21 8 4 22 -5 34 -21 11 -15 21 -21 21
-14 0 15 -40 72 -51 72 -4 0 -10 -7 -13 -16z"/>
<path d="M2095 2295 c-71 -72 -128 -146 -77 -102 12 11 23 14 26 9 3 -6 1 -12
-5 -14 -6 -2 -10 -12 -8 -22 3 -14 8 -11 23 15 10 17 14 29 7 25 -6 -4 -11 -1
-11 8 0 9 30 47 66 86 88 93 72 90 -21 -5z"/>
<path d="M1080 2332 c-22 -18 -21 -42 1 -42 6 0 7 5 4 10 -4 6 4 19 17 30 13
11 18 19 12 20 -7 0 -22 -8 -34 -18z"/>
<path d="M1188 2329 c-18 -10 -25 -29 -10 -29 4 0 18 9 32 20 27 21 10 28 -22
9z"/>
<path d="M1866 2332 c-7 -12 11 -35 22 -28 6 3 13 2 17 -4 9 -14 25 -12 25 3
0 8 -11 19 -25 25 -31 14 -32 14 -39 4z"/>
<path d="M2172 2324 c-28 -19 -28 -26 1 -60 21 -24 25 -25 45 -13 27 17 27 37
3 67 -23 26 -21 26 -49 6z m34 -21 c17 -23 18 -43 1 -43 -16 0 -40 38 -32 50
9 14 16 12 31 -7z"/>
<path d="M1990 2309 c0 -13 4 -18 12 -13 6 4 17 -1 24 -11 8 -10 17 -15 21
-12 7 8 -35 57 -49 57 -4 0 -8 -9 -8 -21z"/>
<path d="M853 2280 c-12 -19 -19 -39 -15 -44 3 -6 8 -4 10 4 3 8 11 23 19 32
8 9 13 22 11 29 -2 7 -14 -3 -25 -21z"/>
<path d="M1107 2282 c-28 -17 -31 -32 -7 -40 8 -3 10 0 5 7 -4 8 1 14 14 18
12 3 21 12 21 19 0 17 1 17 -33 -4z"/>
<path d="M1203 2287 c-26 -12 -30 -35 -8 -44 14 -5 14 -8 -1 -24 -10 -11 -14
-22 -11 -26 4 -3 7 -1 7 6 0 7 4 10 9 7 5 -3 12 1 15 10 4 10 13 13 28 9 21
-5 21 -5 6 8 -13 10 -15 16 -6 25 20 20 -11 43 -39 29z"/>
<path d="M665 2280 c-4 -6 1 -10 10 -10 24 0 30 -28 9 -51 -13 -15 -20 -17
-27 -7 -6 10 -8 9 -4 -2 6 -25 35 -23 52 4 12 19 14 29 6 44 -12 23 -38 35
-46 22z"/>
<path d="M1002 2267 c-26 -28 -28 -37 -5 -37 9 0 13 3 10 7 -4 3 0 15 10 25
24 27 10 32 -15 5z"/>
<path d="M1951 2261 c-8 -14 -5 -23 14 -41 24 -23 26 -23 39 -5 12 16 12 22
-1 42 -18 28 -39 30 -52 4z m43 -17 c4 -9 4 -19 1 -22 -6 -6 -35 18 -35 29 0
16 28 10 34 -7z"/>
<path d="M2116 2265 c-3 -8 0 -15 7 -15 7 0 20 -11 29 -25 17 -23 17 -24 -10
-44 -15 -11 -21 -21 -14 -21 9 0 10 -5 2 -19 -13 -26 -13 -33 3 -55 11 -16 17
-17 36 -7 12 7 19 16 16 21 -3 6 1 7 10 4 19 -8 45 13 45 36 0 9 -9 25 -19 34
-18 17 -20 17 -41 -4 -15 -15 -25 -19 -32 -12 -7 7 3 19 31 38 23 15 39 29 36
32 -3 3 -11 0 -17 -6 -13 -13 -29 -16 -26 -4 3 10 -32 62 -42 62 -4 0 -10 -7
-14 -15z m99 -116 c4 -11 4 -24 0 -27 -9 -9 -36 28 -29 39 9 15 22 10 29 -12z
m-45 -46 c0 -24 -25 -9 -28 17 -3 21 -2 22 12 11 9 -7 16 -20 16 -28z"/>
<path d="M885 2250 c-16 -17 -16 -24 -6 -48 l13 -27 19 24 c35 44 11 92 -26
51z m35 -8 c0 -5 -6 -16 -13 -27 -10 -13 -16 -15 -21 -6 -4 6 -2 18 4 26 13
16 30 20 30 7z"/>
<path d="M949 2243 c9 -18 7 -27 -14 -49 -25 -27 -29 -46 -10 -45 6 1 10 4 10
9 1 4 7 18 14 31 l13 24 20 -24 19 -24 -15 30 c-8 17 -22 39 -31 50 -16 20
-16 20 -6 -2z"/>
<path d="M2300 2239 c0 -12 3 -19 7 -15 4 4 14 -7 23 -23 10 -20 19 -28 27
-23 10 6 8 16 -6 42 -22 42 -51 52 -51 19z"/>
<path d="M2094 2228 c22 -32 20 -47 -6 -40 -14 3 -19 2 -14 -6 10 -16 31 -15
45 2 10 12 9 20 -4 40 -10 14 -22 26 -27 26 -5 0 -2 -10 6 -22z"/>
<path d="M1026 2216 c-14 -22 -14 -27 3 -61 l18 -38 21 21 c12 12 19 28 16 37
-7 18 -26 19 -42 3 -19 -19 -15 12 4 33 9 10 11 20 6 23 -6 3 -17 -5 -26 -18z"/>
<path d="M1116 2221 c-25 -28 -5 -31 23 -4 17 16 20 23 9 23 -8 0 -23 -9 -32
-19z"/>
<path d="M1927 2213 c-11 -10 -8 -23 6 -23 6 0 20 -7 30 -14 18 -14 18 -16 1
-43 l-17 -28 26 30 c14 17 24 30 24 30 -1 0 -16 12 -33 28 -17 15 -33 24 -37
20z"/>
<path d="M2236 2204 c-8 -22 -8 -26 4 -19 5 3 15 -5 22 -19 6 -14 15 -26 20
-26 11 0 10 7 -4 47 -13 35 -32 43 -42 17z"/>
<path d="M765 2170 c-12 -55 24 -70 49 -21 11 21 12 31 3 40 -21 21 -45 12
-52 -19z m36 -19 c-12 -22 -31 -28 -31 -10 0 23 22 51 32 41 7 -7 6 -17 -1
-31z"/>
<path d="M1018 2077 c-135 -67 -256 -131 -269 -142 -32 -29 -59 -97 -60 -152
-2 -51 2 -63 138 -483 84 -263 114 -350 118 -350 6 0 395 195 421 211 l31 19
-79 262 c-43 144 -80 271 -83 282 -2 12 -13 50 -25 86 -28 88 -36 177 -20 225
7 21 32 56 56 79 33 32 42 47 37 64 -3 12 -8 22 -12 21 -3 0 -117 -55 -253
-122z m202 46 c-18 -20 -39 -51 -46 -69 -20 -47 -17 -137 6 -219 11 -38 25
-90 31 -115 6 -25 17 -59 25 -77 17 -39 17 -44 0 -37 -7 3 -27 -7 -45 -21 -31
-27 -44 -17 -16 12 8 8 13 19 9 24 -3 6 0 16 6 24 6 8 10 22 8 32 -3 11 -18
-11 -42 -62 -37 -78 -37 -81 -25 -132 11 -47 10 -54 -8 -79 -18 -25 -19 -30
-6 -63 10 -25 27 -43 55 -59 23 -12 44 -20 47 -17 7 8 -19 77 -36 93 -8 8 -17
11 -21 8 -3 -4 -2 -10 4 -14 6 -4 13 -15 17 -24 10 -28 -18 -22 -37 7 -15 23
-15 27 0 50 12 18 15 36 10 63 -11 63 -15 108 -9 87 3 -11 16 -33 29 -48 13
-16 24 -39 24 -52 0 -13 5 -27 10 -30 6 -4 10 -16 9 -28 -3 -38 1 -67 9 -67 5
0 14 10 19 23 13 28 -26 140 -59 167 -20 15 -21 21 -10 44 15 34 49 34 64 1 8
-18 8 -29 1 -36 -11 -11 4 -79 18 -79 12 0 19 43 9 55 -6 7 -7 15 -3 18 3 4
12 -3 18 -16 9 -17 9 -28 -2 -50 -9 -17 -11 -41 -7 -62 5 -26 -1 -46 -25 -92
-31 -58 -31 -60 -16 -102 18 -53 19 -71 2 -71 -7 0 -23 30 -35 69 -20 61 -26
70 -60 85 -36 16 -40 22 -73 124 l-35 107 -52 28 c-46 25 -53 33 -68 82 -10
30 -23 55 -31 55 -19 0 -46 46 -39 68 4 10 17 25 31 32 20 11 28 10 50 -4 27
-18 34 -63 14 -83 -8 -8 -7 -24 6 -58 15 -38 27 -51 66 -70 42 -22 49 -30 66
-82 18 -52 21 -56 31 -38 8 17 0 51 -46 183 -38 107 -63 164 -74 167 -36 12
-33 65 5 83 12 6 16 11 8 11 -22 1 -51 -30 -51 -55 0 -12 11 -35 24 -51 27
-31 89 -200 77 -208 -4 -2 -23 4 -42 14 -41 22 -61 71 -47 113 14 40 2 75 -32
93 -56 29 -113 -22 -103 -92 5 -28 33 -69 33 -48 0 19 39 -39 45 -67 10 -43
-9 -58 -34 -27 l-20 24 16 -52 c17 -53 33 -62 33 -17 0 14 6 27 14 30 18 7
106 -53 107 -74 1 -9 2 -38 3 -63 1 -42 25 -87 39 -73 3 3 8 -4 12 -16 4 -11
24 -32 46 -46 22 -13 39 -30 38 -37 -3 -25 2 -35 20 -40 16 -4 20 -13 19 -48
l0 -42 -19 24 -19 24 7 -34 c4 -24 3 -32 -5 -27 -6 4 -20 1 -30 -5 -29 -18
-52 -4 -52 29 0 16 -7 35 -16 42 -24 21 -38 53 -36 85 3 30 2 30 -13 8 -20
-29 -10 -71 21 -85 28 -13 37 -34 24 -58 -14 -25 -13 -27 10 -33 21 -5 28 -27
9 -27 -6 0 -30 12 -55 26 -32 19 -44 32 -44 49 0 13 4 26 8 29 5 3 0 34 -11
69 -20 63 -21 65 -82 95 -57 28 -63 34 -78 79 -9 26 -12 49 -7 51 5 2 3 14 -5
26 -20 30 -8 40 18 16 15 -15 17 -23 9 -33 -8 -10 -8 -23 0 -49 9 -31 22 -42
84 -76 66 -36 74 -38 74 -21 0 13 -17 27 -55 46 -53 26 -56 29 -77 95 -17 51
-26 68 -42 70 -17 2 -21 9 -19 33 2 20 0 25 -6 16 -7 -11 -11 -10 -19 5 -21
41 -62 187 -62 222 1 46 22 106 47 134 16 19 458 241 492 247 1 1 -11 -16 -29
-36z m90 -736 c0 -7 6 -24 14 -38 18 -35 28 -79 18 -79 -15 0 -32 24 -32 47 0
13 -4 23 -10 23 -5 0 -10 16 -10 36 0 21 4 33 10 29 6 -3 10 -12 10 -18z
m-430 -128 c0 -10 13 -25 30 -34 31 -16 40 -51 19 -72 -8 -8 -4 -32 15 -89 15
-45 22 -82 17 -87 -5 -5 -22 31 -40 84 -29 86 -30 94 -15 111 16 16 15 18 -8
27 -16 6 -27 20 -31 38 -3 15 -9 37 -13 48 -7 18 -6 18 9 6 9 -7 17 -22 17
-32z m462 -26 c30 -27 23 -57 -19 -77 -37 -17 -38 -17 -55 4 -23 29 -23 45 2
70 24 24 47 25 72 3z m-337 -188 c25 -21 28 -27 15 -35 -25 -16 -40 -11 -50
16 -20 51 -10 56 35 19z"/>
<path d="M1033 1852 c19 -21 22 -53 7 -68 -6 -6 4 -48 29 -119 l38 -109 20 44
c13 30 16 46 9 49 -6 2 -14 9 -18 15 -5 6 -5 -5 -2 -24 9 -48 1 -37 -30 39
-16 40 -26 84 -26 116 0 48 -12 75 -34 75 -5 0 -2 -8 7 -18z"/>
<path d="M990 1816 c0 -8 4 -17 9 -20 11 -7 33 18 24 27 -12 12 -33 7 -33 -7z"/>
<path d="M880 1712 c0 -24 8 -32 26 -25 22 8 17 43 -6 43 -13 0 -20 -7 -20
-18z"/>
<path d="M801 1581 c6 -17 17 -31 25 -31 17 0 5 28 -20 49 -14 12 -14 10 -5
-18z"/>
<path d="M921 1471 c-25 -16 -4 -59 39 -81 22 -11 40 -18 40 -15 0 9 -36 41
-53 48 -20 7 -22 28 -5 45 14 14 0 16 -21 3z"/>
<path d="M995 1316 c13 -19 14 -29 6 -45 -6 -11 -11 -26 -11 -33 1 -7 10 4 21
25 21 40 19 51 -12 68 -20 10 -20 10 -4 -15z"/>
<path d="M1007 1124 c-14 -15 -6 -34 14 -34 14 0 19 5 17 17 -3 18 -20 27 -31
17z"/>
<path d="M1293 1209 c-13 -13 -6 -39 11 -39 22 0 37 22 25 37 -14 16 -22 16
-36 2z"/>
<path d="M1652 2183 c4 -21 33 -25 33 -3 0 8 -8 16 -18 18 -14 3 -18 -1 -15
-15z"/>
<path d="M1895 2170 c-3 -5 0 -20 7 -32 7 -13 11 -30 9 -38 -2 -8 7 -2 19 13
21 27 21 29 5 47 -20 22 -31 25 -40 10z"/>
<path d="M831 2146 c-6 -16 -14 -33 -17 -37 -3 -5 2 -9 11 -9 9 0 13 5 10 10
-4 6 -1 17 5 25 7 8 10 20 7 27 -3 8 -9 1 -16 -16z"/>
<path d="M884 2148 c20 -28 21 -44 2 -29 -11 10 -17 7 -30 -10 -8 -12 -12 -27
-9 -33 4 -5 11 0 16 12 6 12 14 22 19 22 13 0 9 -27 -7 -43 -8 -8 -11 -17 -8
-21 3 -3 12 2 19 12 9 11 13 13 14 4 0 -15 20 -6 20 9 0 6 -4 7 -10 4 -5 -3
-10 4 -10 15 0 16 4 20 15 16 10 -3 6 7 -11 29 -29 38 -44 48 -20 13z"/>
<path d="M950 2151 c-7 -14 -7 -21 0 -21 5 0 10 5 10 10 0 6 5 10 10 10 16 0
12 -28 -6 -38 -15 -8 -15 -10 1 -15 9 -4 23 0 31 8 9 8 11 15 5 15 -5 0 -11
10 -13 22 -4 29 -24 34 -38 9z"/>
<path d="M2050 2163 c0 -6 6 -18 14 -26 12 -12 9 -20 -26 -58 -22 -25 -36 -35
-33 -24 9 24 9 33 -1 65 l-7 25 23 -20 23 -20 -12 23 c-15 28 -33 24 -42 -9
-4 -13 -7 -20 -8 -15 -1 5 -8 3 -16 -4 -8 -7 -15 -9 -15 -5 0 4 -7 2 -15 -5
-8 -7 -15 -18 -14 -24 0 -6 5 -4 11 5 9 13 14 11 40 -14 l29 -30 45 44 c24 24
44 46 44 50 0 12 -39 54 -40 42z m-54 -85 c-1 -26 -20 -27 -24 -2 -2 12 3 21
11 21 8 0 14 -9 13 -19z"/>
<path d="M110 2140 c0 -8 -3 -26 -5 -40 -5 -22 -4 -22 4 -5 9 19 10 18 10 -5
1 -26 21 -66 21 -42 0 6 7 12 16 12 14 0 14 1 0 16 -9 8 -16 21 -16 28 0 7 -7
21 -15 32 -11 14 -14 15 -15 4z"/>
<path d="M596 2103 c-15 -43 -15 -43 9 -43 13 0 27 5 30 10 3 6 1 10 -4 10
-16 0 -13 26 3 39 11 9 15 9 19 -1 2 -7 8 -10 12 -5 12 10 -10 30 -34 32 -15
1 -24 -9 -35 -42z"/>
<path d="M1490 2144 c0 -13 21 -42 34 -47 12 -5 13 -1 4 24 -5 16 -16 29 -24
29 -8 0 -14 -3 -14 -6z"/>
<path d="M2854 2105 c-17 -38 -18 -44 -4 -53 32 -20 0 -22 -37 -2 -21 12 -30
19 -20 16 9 -3 17 -1 17 4 0 6 -15 10 -32 10 l-33 0 36 -35 c31 -32 38 -35 62
-26 21 8 27 17 27 42 0 22 4 30 13 26 10 -4 12 3 9 24 -6 44 -15 42 -38 -6z"/>
<path d="M2235 2095 c-33 -19 -57 -35 -53 -35 14 0 118 54 118 62 0 11 2 12
-65 -27z"/>
<path d="M669 2081 c-19 -32 -11 -55 15 -45 14 5 15 9 4 15 -10 6 -10 11 0 21
13 13 16 38 5 38 -5 0 -15 -13 -24 -29z"/>
<path d="M1773 2098 c-17 -22 -38 -82 -35 -100 2 -9 -7 -22 -19 -29 l-22 -11
21 -17 c26 -20 44 -65 36 -95 -3 -12 0 -35 7 -51 11 -29 12 -29 21 -9 7 15 3
40 -15 93 l-24 73 24 50 c13 28 22 57 18 65 -3 9 0 22 6 29 7 8 7 14 1 14 -5
0 -14 -6 -19 -12z"/>
<path d="M1805 2090 c-4 -7 -3 -16 3 -22 14 -14 45 -2 40 15 -6 16 -34 21 -43
7z"/>
<path d="M2090 2081 c0 -12 7 -24 15 -27 8 -4 13 -10 10 -14 -3 -5 -1 -19 4
-32 8 -21 9 -19 9 12 -1 19 -9 46 -19 59 -19 23 -19 23 -19 2z"/>
<path d="M730 2065 c-6 -17 -13 -36 -15 -43 -3 -9 1 -12 13 -10 10 2 16 11 14
22 -2 11 1 22 7 25 6 4 6 12 1 21 -7 11 -11 8 -20 -15z"/>
<path d="M1273 2073 c-4 -10 -14 -23 -22 -30 -9 -7 -12 -13 -7 -13 5 0 1 -9
-8 -19 -10 -11 -16 -26 -13 -33 4 -10 6 -9 6 2 1 8 10 21 21 28 17 10 20 10
20 -2 0 -8 -8 -17 -17 -19 -13 -4 -12 -5 5 -6 19 -1 22 3 21 32 -1 17 1 42 5
55 9 26 -2 30 -11 5z"/>
<path d="M1493 2072 c18 -20 22 -42 9 -42 -4 0 -8 -16 -8 -35 0 -39 7 -36 26
12 16 43 6 83 -22 83 -20 0 -20 -1 -5 -18z"/>
<path d="M2287 2083 c-13 -13 -7 -31 11 -29 12 1 16 -5 14 -21 -4 -31 14 -30
20 1 7 36 -25 70 -45 49z"/>
<path d="M2390 2079 c0 -6 -8 -8 -17 -5 -11 4 -8 -2 7 -14 24 -19 24 -20 4
-20 -12 0 -24 -7 -28 -15 -3 -8 -1 -15 4 -15 6 0 10 4 10 9 0 5 11 12 25 15
21 5 24 10 16 25 -6 10 -7 21 -4 25 3 3 1 6 -5 6 -7 0 -12 -5 -12 -11z"/>
<path d="M199 2071 c12 -7 6 -13 -22 -27 -29 -14 -34 -20 -22 -26 10 -6 26 0
50 19 42 34 44 43 8 43 -21 0 -24 -3 -14 -9z"/>
<path d="M48 2062 c-47 -4 -48 -14 -3 -42 24 -15 34 -28 31 -39 -3 -9 -8 -29
-12 -46 l-7 -30 38 29 38 30 39 -23 c42 -24 45 -19 23 30 l-16 34 6 -30 5 -30
-29 35 c-28 33 -29 34 -33 11 -1 -13 -14 -31 -27 -39 l-23 -16 21 43 c20 38
20 41 4 32 -14 -7 -25 -4 -43 11 l-25 19 38 -6 c20 -3 37 -2 37 3 0 18 -25 27
-62 24z"/>
<path d="M1696 2038 c-9 -17 -15 -32 -14 -34 6 -5 35 22 47 44 10 18 9 22 -3
22 -8 0 -22 -14 -30 -32z"/>
<path d="M2237 2064 c-10 -11 -9 -36 2 -29 5 3 11 -5 13 -17 4 -27 28 -37 28
-11 0 23 -33 66 -43 57z"/>
<path d="M1937 2054 c-4 -4 -7 -14 -7 -22 0 -9 3 -12 7 -9 3 4 12 2 20 -5 21
-17 24 -5 4 20 -9 13 -20 20 -24 16z"/>
<path d="M2886 2044 c-5 -13 0 -15 36 -9 41 7 42 6 23 -10 -17 -14 -16 -14 12
1 41 22 33 34 -22 34 -30 0 -45 -5 -49 -16z"/>
<path d="M585 2026 c35 -18 65 -20 65 -6 0 6 -6 10 -14 10 -7 0 -29 2 -47 5
l-34 5 30 -14z"/>
<path d="M2160 2024 c-15 -8 -19 -14 -10 -14 9 0 11 -3 5 -8 -5 -4 -10 -14
-10 -22 0 -8 -9 -16 -20 -18 -15 -2 -16 -1 -7 6 11 8 11 10 -1 15 -8 3 -23 -1
-34 -9 -17 -14 -17 -14 2 -12 14 2 20 -2 18 -16 -1 -13 2 -15 10 -7 6 6 19 11
29 11 10 0 18 7 18 15 0 11 7 13 29 9 34 -7 41 1 34 39 -6 30 -23 33 -63 11z"/>
<path d="M2836 1982 l-37 -37 11 30 c13 36 -1 22 -18 -17 -13 -33 1 -38 34
-13 27 20 38 19 75 -12 l32 -28 -7 40 c-4 22 -8 46 -8 53 -1 6 -3 10 -6 7 -3
-2 -12 0 -22 5 -13 7 -25 0 -54 -28z m73 -37 c-3 -2 -15 4 -28 14 -17 13 -22
24 -17 37 6 16 10 15 28 -14 11 -18 19 -35 17 -37z"/>
<path d="M680 2000 c0 -4 14 -13 31 -19 38 -13 39 -13 39 -3 0 5 -16 13 -35
19 -19 6 -35 7 -35 3z"/>
<path d="M565 1964 c-8 -46 7 -66 32 -41 13 12 14 17 4 17 -10 0 -12 9 -7 30
4 22 2 30 -8 30 -8 0 -17 -16 -21 -36z"/>
<path d="M1532 1955 c-12 -25 -19 -51 -16 -58 6 -16 74 -51 74 -38 0 6 -9 13
-21 16 -33 11 -44 47 -24 85 9 17 15 34 13 36 -2 2 -14 -16 -26 -41z"/>
<path d="M2326 1991 c-4 -5 -24 -12 -46 -16 -22 -4 -42 -11 -46 -16 -7 -12 23
-11 46 1 10 6 30 11 43 12 13 1 24 8 24 15 0 15 -13 17 -21 4z"/>
<path d="M634 1945 c-7 -41 -2 -50 23 -41 13 5 14 9 5 15 -9 5 -11 17 -6 34 4
17 2 27 -4 27 -6 0 -14 -16 -18 -35z"/>
<path d="M2385 1970 c-3 -5 -18 -10 -32 -10 -19 0 -24 -4 -19 -16 3 -9 6 -27
6 -40 0 -13 5 -24 11 -24 7 0 9 12 5 35 -6 31 -4 35 14 35 12 0 19 -4 15 -9
-3 -5 0 -13 6 -17 9 -5 10 1 5 19 -4 16 -1 27 7 30 9 4 9 6 0 6 -6 1 -15 -3
-18 -9z"/>
<path d="M690 1944 c-13 -33 -13 -47 0 -39 6 3 10 15 10 26 0 11 7 19 16 19 8
0 12 5 9 10 -11 17 -25 11 -35 -16z"/>
<path d="M1261 1960 c-8 -4 -20 -6 -28 -3 -9 4 -11 0 -7 -11 3 -8 9 -15 12
-14 19 2 23 -3 14 -15 -15 -17 1 -39 21 -31 21 8 22 44 2 44 -18 0 -20 17 -2
23 6 2 10 7 7 10 -3 3 -12 2 -19 -3z"/>
<path d="M1960 1941 c0 -5 5 -13 11 -16 6 -4 8 -13 5 -21 -3 -8 -1 -14 5 -14
6 0 7 -5 3 -12 -4 -7 -3 -8 4 -4 7 4 17 17 22 29 10 21 10 21 -4 4 -14 -18
-15 -17 -18 9 -3 25 -28 48 -28 25z"/>
<path d="M2135 1929 c-19 -7 -19 -8 3 -8 15 -1 21 -5 16 -13 -4 -7 -3 -8 4 -4
20 12 33 -3 22 -25 -6 -10 -7 -19 -2 -19 5 0 14 16 20 36 9 31 9 35 -5 30 -9
-4 -21 -2 -27 3 -6 5 -20 5 -31 0z"/>
<path d="M2257 1933 c-11 -10 -8 -51 3 -58 6 -4 8 6 6 24 -2 17 2 32 8 35 7 3
8 5 0 5 -6 1 -14 -2 -17 -6z"/>
<path d="M1330 1900 c-13 -8 -12 -10 2 -10 10 0 20 -10 22 -22 3 -13 8 -36 11
-53 4 -16 7 -43 8 -60 1 -19 7 -30 17 -30 9 0 14 7 12 20 -2 11 -4 28 -5 38
-1 9 -7 17 -13 17 -7 0 -12 17 -12 42 -1 47 -19 72 -42 58z"/>
<path d="M2122 1898 c3 -7 -2 -19 -11 -26 -9 -7 -11 -12 -6 -11 6 1 18 -1 27
-5 14 -6 15 -11 5 -21 -7 -7 -16 -10 -21 -7 -5 3 -6 0 -2 -7 6 -9 11 -9 21 -1
8 7 19 8 26 4 8 -4 4 -11 -12 -20 -13 -7 -19 -13 -13 -14 5 0 18 6 28 13 16
12 16 14 -7 39 -19 20 -21 28 -11 30 11 2 10 7 -7 21 -13 12 -20 14 -17 5z"/>
<path d="M550 1891 c0 -11 37 -21 75 -21 21 1 26 3 15 9 -22 12 -90 21 -90 12z"/>
<path d="M1675 1891 c-8 -15 3 -31 21 -31 9 0 14 7 12 17 -4 20 -24 28 -33 14z"/>
<path d="M2007 1873 c-11 -13 -16 -27 -13 -30 3 -4 6 0 6 8 0 12 2 12 9 0 8
-12 11 -9 17 12 9 37 3 40 -19 10z"/>
<path d="M2045 1886 c3 -10 0 -26 -7 -35 -11 -14 -11 -14 3 -3 14 10 17 9 22
-7 2 -11 1 -24 -4 -30 -5 -6 -6 -9 -2 -6 3 3 15 -3 25 -12 13 -12 22 -13 29
-6 8 8 8 13 0 17 -6 4 -11 2 -11 -4 0 -6 -5 -8 -11 -4 -6 3 -8 15 -6 26 3 11
3 17 0 14 -4 -3 -15 11 -25 31 -10 21 -16 30 -13 19z"/>
<path d="M2200 1867 c-16 -32 -10 -41 21 -32 12 4 17 10 11 14 -5 3 -12 15
-14 26 -4 18 -6 17 -18 -8z"/>
<path d="M1242 1840 c-3 -36 22 -69 39 -52 11 10 9 12 -6 12 -20 1 -20 1 -1
15 11 8 15 15 10 15 -6 0 -15 -5 -22 -12 -9 -9 -12 -8 -12 4 0 9 10 24 22 33
l23 15 -26 -2 c-19 -2 -26 -8 -27 -28z"/>
<path d="M520 1860 c0 -3 -2 -24 -4 -48 -2 -34 0 -40 10 -30 9 9 10 24 4 48
-4 19 -9 33 -10 30z"/>
<path d="M558 1815 c4 -48 12 -55 32 -30 8 9 8 15 2 15 -6 0 -12 12 -14 27 -5
47 -23 36 -20 -12z"/>
<path d="M617 1853 c-12 -11 -8 -68 5 -81 15 -15 38 -16 38 -2 0 6 -7 10 -15
10 -10 0 -15 10 -15 30 0 32 9 37 28 18 7 -7 12 -8 12 -2 0 24 -38 43 -53 27z"/>
<path d="M2865 1811 c-10 -20 -13 -37 -7 -47 6 -12 11 -5 21 26 15 52 8 63
-14 21z"/>
<path d="M2006 1821 c-3 -5 3 -29 14 -52 11 -24 20 -37 19 -29 0 8 -6 26 -13
39 -8 14 -12 31 -9 38 6 15 -3 18 -11 4z"/>
<path d="M2363 1805 c7 -38 -8 -68 -22 -46 -8 13 -12 13 -26 1 -14 -12 -16
-12 -15 1 5 30 0 59 -10 59 -7 0 -8 -13 -4 -37 4 -21 8 -46 8 -55 0 -12 8 -18
22 -18 12 0 29 -3 38 -6 9 -3 16 -1 16 5 0 6 -11 11 -24 11 -25 0 -43 25 -26
35 6 4 10 1 10 -4 0 -6 11 -11 25 -11 19 0 25 5 26 23 2 34 -2 51 -13 62 -7 7
-9 1 -5 -20z"/>
<path d="M2406 1815 c-3 -8 -2 -15 2 -15 5 0 8 -10 8 -22 -1 -13 4 -24 9 -25
6 -2 10 15 10 37 1 40 -17 55 -29 25z"/>
<path d="M2194 1805 c-10 -8 -14 -15 -7 -15 7 0 10 -7 6 -17 -4 -11 -3 -14 5
-9 8 4 12 0 13 -11 1 -12 3 -10 8 7 4 14 3 28 -2 31 -5 4 -6 12 -3 18 10 15 4
14 -20 -4z"/>
<path d="M80 1773 c0 -20 3 -24 9 -15 6 10 10 7 15 -13 5 -20 10 -25 18 -17 7
7 4 19 -11 41 -27 38 -31 38 -31 4z"/>
<path d="M2780 1791 c1 -3 11 -18 23 -33 15 -19 26 -25 36 -19 11 7 9 11 -9
21 -16 9 -19 14 -10 20 8 5 3 9 -14 12 -14 3 -26 2 -26 -1z"/>
<path d="M2165 1783 c3 -7 1 -13 -4 -13 -6 0 -11 -5 -11 -11 0 -5 4 -8 9 -4 5
3 12 1 15 -4 3 -5 -1 -11 -9 -15 -8 -3 -19 3 -24 12 -6 10 -11 12 -11 5 0 -18
-20 -16 -20 2 0 8 -4 15 -8 15 -4 0 -8 -8 -8 -19 0 -14 7 -18 23 -16 26 3 31
-10 8 -19 -8 -3 -15 -11 -15 -17 0 -8 4 -8 13 -1 8 7 18 7 27 2 24 -15 36 -11
14 5 -15 11 -16 15 -4 16 8 1 18 1 23 0 13 -2 7 35 -9 55 -8 10 -13 13 -9 7z"/>
<path d="M1335 1772 c-17 -12 -16 -32 1 -25 12 4 15 2 12 -8 -3 -8 -11 -13
-17 -11 -15 3 -14 -11 1 -26 9 -9 9 -12 0 -12 -7 0 -12 -4 -12 -10 0 -5 7 -7
15 -3 9 3 14 11 12 17 -2 6 0 19 4 28 11 20 -2 60 -16 50z"/>
<path d="M175 1759 c-11 -4 -16 -8 -11 -8 5 -1 -1 -12 -13 -25 -21 -22 -21
-24 -4 -28 12 -2 24 7 36 30 21 39 20 43 -8 31z"/>
<path d="M1262 1745 c1 -14 7 -24 13 -21 7 2 12 -9 12 -28 1 -57 30 -146 47
-146 4 0 5 -7 2 -16 -3 -8 -2 -13 2 -10 4 2 9 -14 9 -36 2 -46 6 -53 25 -42
19 12 76 15 83 4 3 -5 12 -7 20 -3 8 3 15 1 15 -5 0 -13 -65 -23 -101 -15 -19
3 -29 1 -29 -6 0 -7 5 -9 12 -5 8 5 9 2 5 -10 -6 -15 8 -90 20 -105 1 -2 9 2
18 9 13 10 15 9 15 -10 0 -16 -4 -21 -16 -16 -13 5 -15 2 -9 -11 4 -10 10 -28
12 -40 3 -13 9 -23 13 -23 9 0 24 31 22 43 -1 4 2 7 8 7 16 0 37 49 43 100 2
11 -6 14 -32 12 -22 -3 -31 0 -27 7 4 6 20 11 36 11 28 0 29 2 23 33 -8 41 -6
40 -50 44 -47 5 -51 10 -27 28 17 13 17 14 2 15 -10 0 -18 6 -18 14 0 8 7 12
18 10 22 -5 53 15 35 23 -7 2 -13 14 -13 24 0 11 -4 17 -10 14 -5 -3 -10 -2
-10 4 0 5 6 11 13 14 9 3 9 7 -2 20 -7 10 -17 32 -21 50 -8 31 -8 31 -9 -11
-1 -29 3 -41 10 -36 8 4 9 -3 4 -24 -3 -18 -2 -33 4 -37 14 -8 14 -35 0 -35
-6 0 -8 7 -5 16 3 9 2 12 -5 8 -6 -3 -19 3 -30 15 -24 26 -24 35 0 28 14 -3
17 0 14 14 -3 10 -9 16 -14 13 -5 -3 -9 2 -9 11 0 9 5 13 10 10 6 -3 10 -1 10
4 0 6 -4 11 -9 11 -14 0 -26 -21 -26 -44 0 -14 -8 -20 -27 -20 -17 -1 -28 3
-28 12 0 7 4 11 9 8 5 -3 14 1 21 9 11 13 9 15 -10 13 -18 -2 -25 3 -31 24 -4
16 -3 30 2 34 17 10 9 32 -13 38 -19 5 -21 8 -8 16 13 8 13 10 -2 10 -13 0
-17 -7 -16 -25z m97 -161 c6 4 11 2 11 -4 0 -6 7 -18 15 -26 8 -9 15 -31 15
-50 0 -27 -4 -34 -20 -34 -25 0 -25 9 -2 26 16 13 16 13 0 14 -22 0 -24 20 -2
20 14 0 14 2 0 15 -8 8 -17 15 -21 15 -12 0 -34 28 -28 34 4 3 10 1 14 -5 4
-6 12 -8 18 -5z m81 -189 c0 -8 -4 -15 -8 -15 -5 0 -9 -7 -9 -16 0 -12 7 -14
30 -10 28 6 29 5 22 -22 -3 -15 -11 -29 -17 -31 -6 -2 -6 -6 2 -11 8 -5 7 -9
-5 -14 -14 -5 -16 -1 -10 24 6 27 4 30 -17 30 -19 0 -23 5 -23 33 0 30 10 46
28 47 4 0 7 -7 7 -15z"/>
<path d="M2885 1760 c-9 -14 -7 -16 30 -23 30 -6 65 6 49 16 -23 13 -73 17
-79 7z"/>
<path d="M1625 1751 c-8 -15 3 -31 21 -31 9 0 14 7 12 17 -4 20 -24 28 -33 14z"/>
<path d="M525 1740 c-14 -6 -1 -9 43 -9 40 -1 61 3 57 9 -7 12 -72 12 -100 0z"/>
<path d="M80 1733 c0 -6 -13 -14 -30 -18 -33 -7 -39 -19 -14 -29 22 -8 26 -8
19 3 -3 5 8 11 24 13 27 3 29 4 15 22 -8 11 -14 15 -14 9z"/>
<path d="M2840 1715 c-13 -13 -27 -23 -33 -22 -6 1 -13 -6 -15 -16 -4 -18 -2
-18 28 -2 32 16 33 16 61 -11 26 -25 29 -26 29 -8 0 34 -11 60 -29 71 -15 10
-23 7 -41 -12z"/>
<path d="M563 1713 c-7 -2 -13 -17 -14 -31 0 -26 -1 -26 -9 -4 -5 12 -15 22
-21 22 -8 0 -8 -4 1 -15 7 -9 10 -27 6 -45 -6 -33 12 -43 21 -11 4 16 8 18 23
9 41 -26 65 16 34 60 -16 23 -20 24 -41 15z m35 -46 c4 -31 -12 -36 -28 -8
-15 29 -12 43 8 39 10 -2 18 -14 20 -31z"/>
<path d="M630 1713 c0 -4 5 -25 11 -46 9 -33 13 -36 25 -26 14 11 13 13 0 21
-9 5 -16 18 -16 28 0 10 -4 22 -10 25 -5 3 -10 3 -10 -2z"/>
<path d="M2228 1666 c4 -31 2 -34 -17 -29 -13 3 -21 13 -21 25 0 16 -3 18 -14
9 -8 -6 -11 -22 -8 -37 3 -16 7 -21 12 -14 4 7 16 9 29 5 16 -5 23 -1 30 17
l10 23 0 -22 c1 -32 38 -31 53 1 13 30 5 56 -18 56 -12 0 -14 -3 -6 -13 12
-14 5 -57 -9 -57 -5 0 -9 10 -9 23 0 21 -16 47 -30 47 -3 0 -4 -15 -2 -34z"/>
<path d="M95 1682 c-6 -4 -8 -25 -5 -47 l5 -39 19 29 c16 24 16 27 3 16 -15
-12 -16 -11 -11 18 7 32 5 35 -11 23z"/>
<path d="M131 1676 c4 -19 55 -44 66 -32 9 8 -18 37 -29 30 -5 -3 -16 0 -25 7
-13 11 -15 11 -12 -5z"/>
<path d="M2329 1688 c-4 -15 -2 -71 3 -74 9 -6 14 5 23 44 5 25 3 32 -9 32 -9
0 -16 -1 -17 -2z"/>
<path d="M2070 1650 c13 -9 13 -11 0 -20 -10 -6 -11 -10 -2 -10 6 0 12 -7 12
-15 0 -18 16 -20 26 -3 4 7 3 8 -4 4 -8 -5 -12 3 -12 23 0 23 -5 31 -17 31
-15 0 -16 -2 -3 -10z"/>
<path d="M479 1643 c0 -4 -2 -19 -3 -32 -2 -13 -10 -28 -19 -33 -10 -5 -17
-16 -17 -23 0 -26 19 -16 35 18 8 17 13 24 11 15 -3 -10 -1 -20 4 -23 15 -9
12 -25 -5 -25 -20 0 -33 -31 -24 -60 4 -16 7 -19 8 -7 1 20 10 21 34 3 25 -20
22 -39 -7 -34 -18 4 -23 1 -18 -10 3 -8 -1 -20 -9 -26 -19 -15 -22 -37 -4 -30
8 4 12 11 8 17 -4 6 2 8 15 5 14 -4 19 -2 16 7 -3 7 2 15 11 19 11 4 19 -3 27
-22 13 -33 13 -105 -2 -110 -5 -2 -10 -9 -10 -15 0 -8 4 -7 12 1 17 17 26 15
38 -7 7 -14 7 -22 -2 -27 -6 -4 -8 -3 -5 2 3 5 -3 10 -13 10 -18 0 -18 -1 1
-27 10 -15 19 -34 19 -43 0 -9 4 -16 10 -16 5 0 7 7 3 16 -5 15 -3 15 20 -1
18 -11 27 -13 27 -5 0 6 -13 17 -30 23 -33 12 -38 24 -15 33 8 4 25 -6 41 -23
l26 -28 -21 35 c-11 19 -26 34 -32 32 -6 -1 -8 2 -5 7 3 5 -8 40 -25 78 -34
75 -79 232 -79 275 0 24 -19 52 -21 31z"/>
<path d="M551 1594 c-40 -17 -37 -29 3 -14 15 5 40 10 56 10 16 0 32 5 35 10
9 15 -55 11 -94 -6z"/>
<path d="M2175 1600 c-18 -8 -18 -9 5 -9 19 -1 21 -4 12 -13 -19 -19 -14 -29
7 -16 13 8 17 16 11 24 -6 6 -7 14 -3 17 9 9 -7 8 -32 -3z"/>
<path d="M2271 1591 c17 -11 140 -33 147 -27 9 10 -38 24 -98 30 -43 4 -60 3
-49 -3z"/>
<path d="M660 1558 c0 -14 7 -33 15 -44 13 -16 16 -17 25 -4 5 8 10 18 10 23
0 12 -18 8 -23 -5 -3 -7 -6 -1 -6 14 -1 33 -21 48 -21 16z"/>
<path d="M2154 1568 c-10 -15 -13 -47 -5 -46 3 1 14 -2 24 -7 10 -4 21 -4 25
-1 8 9 -19 26 -30 20 -5 -3 -6 6 -2 20 7 27 0 34 -12 14z"/>
<path d="M590 1561 c0 -5 7 -25 15 -46 13 -30 18 -35 30 -25 19 16 19 31 1 24
-10 -4 -16 5 -21 25 -6 28 -25 44 -25 22z"/>
<path d="M2243 1558 c2 -7 0 -23 -4 -35 -5 -13 -5 -23 0 -23 5 0 11 8 14 18 2
9 8 25 12 35 5 12 2 17 -10 17 -9 0 -15 -6 -12 -12z"/>
<path d="M537 1553 c-4 -3 0 -14 9 -24 8 -9 16 -31 16 -49 1 -27 3 -29 15 -17
12 12 12 20 -3 55 -16 41 -24 49 -37 35z"/>
<path d="M2297 1554 c-3 -3 -3 -12 0 -20 3 -8 0 -21 -7 -29 -17 -20 -4 -33 15
-14 19 19 27 69 11 69 -7 0 -15 -3 -19 -6z"/>
<path d="M2354 1539 c-3 -6 -2 -14 4 -18 7 -4 8 -12 2 -21 -6 -8 -10 -22 -10
-30 0 -13 2 -13 13 0 18 21 37 67 30 74 -10 10 -31 7 -39 -5z"/>
<path d="M2759 1546 c-3 -3 -19 -6 -37 -8 -18 -1 -32 -6 -32 -11 0 -4 -4 -5
-10 -2 -5 3 -18 1 -27 -4 -20 -11 -19 -12 15 -16 12 -1 22 0 22 4 0 3 28 7 63
9 l62 2 -65 -36 c-36 -20 -77 -50 -93 -67 -15 -18 -35 -40 -44 -49 -9 -10 -13
-21 -9 -25 4 -5 13 0 20 9 7 10 16 15 19 11 4 -3 7 -1 7 5 0 6 9 20 21 31 13
11 18 24 14 32 -5 8 -4 10 3 5 7 -4 39 9 72 28 34 20 69 36 78 37 9 0 37 9 62
19 l45 19 -40 1 c-22 1 -63 3 -90 6 -28 3 -53 2 -56 0z"/>
<path d="M1553 1524 c-7 -18 17 -38 31 -24 11 11 1 40 -14 40 -6 0 -13 -7 -17
-16z"/>
<path d="M1916 1516 c5 -19 2 -31 -7 -37 -8 -5 -9 -9 -3 -9 5 0 18 6 27 13 15
11 15 14 -4 37 l-20 25 7 -29z"/>
<path d="M1463 1523 c-22 -8 -15 -39 10 -40 12 0 17 1 11 3 -7 3 -10 14 -7 24
6 21 5 21 -14 13z"/>
<path d="M2414 1506 c-17 -27 -16 -67 2 -73 7 -2 10 6 7 22 -3 14 2 36 11 50
9 14 12 25 6 25 -5 0 -17 -11 -26 -24z"/>
<path d="M1844 1512 c-6 -4 -26 -36 -43 -71 -24 -46 -40 -66 -62 -74 -28 -11
-39 -27 -18 -27 27 0 52 26 80 83 17 34 35 63 39 65 4 1 16 9 26 17 15 11 16
14 4 15 -8 0 -20 -4 -26 -8z"/>
<path d="M2931 1504 c-79 -21 -172 -68 -222 -113 -63 -56 -42 -62 26 -7 63 52
129 88 195 107 25 7 49 16 55 21 11 10 12 10 -54 -8z"/>
<path d="M130 1487 c0 -10 5 -17 10 -17 6 0 10 -7 10 -15 0 -8 5 -15 10 -15
17 0 11 26 -10 45 -18 16 -20 16 -20 2z"/>
<path d="M693 1487 c-18 -5 -33 -14 -33 -19 0 -9 44 -1 69 12 23 12 -2 17 -36
7z"/>
<path d="M2120 1490 c0 -5 17 -10 38 -10 27 0 33 3 22 10 -20 13 -60 13 -60 0z"/>
<path d="M1844 1467 c-11 -13 -30 -47 -43 -75 -14 -29 -30 -52 -38 -52 -7 0
-13 -5 -13 -11 0 -6 7 -8 16 -5 9 3 20 6 24 6 5 0 23 29 40 65 18 38 37 65 46
65 9 0 14 5 12 12 -7 21 -25 19 -44 -5z"/>
<path d="M2215 1480 c-2 -4 28 -18 68 -30 39 -13 86 -29 102 -37 l30 -14 -25
20 c-30 25 -168 73 -175 61z"/>
<path d="M192 1450 c-17 -23 -19 -30 -8 -30 8 0 22 10 30 22 32 46 11 53 -22
8z"/>
<path d="M2455 1470 c-3 -5 -1 -10 4 -10 6 0 11 -7 11 -15 0 -9 6 -12 15 -9
21 8 19 21 -4 34 -13 7 -22 7 -26 0z"/>
<path d="M598 1454 c-38 -20 -36 -38 2 -19 17 9 30 20 30 25 0 12 1 12 -32 -6z"/>
<path d="M2104 1458 c-5 -7 -3 -8 5 -3 9 5 12 2 9 -10 -1 -10 -9 -20 -17 -23
-9 -3 -11 0 -6 8 6 9 4 11 -4 6 -7 -5 -10 -14 -7 -21 3 -8 -4 -15 -17 -18 -12
-2 -7 -4 10 -3 18 1 34 -1 35 -4 2 -3 46 -27 98 -54 52 -27 104 -56 114 -65
18 -15 18 -15 8 4 -5 11 -58 44 -116 73 -58 30 -106 57 -106 60 0 4 7 16 15
26 14 19 12 36 -5 36 -5 0 -12 -5 -16 -12z"/>
<path d="M2530 1460 c0 -5 4 -10 9 -10 6 0 6 -12 0 -32 -10 -36 -7 -43 17 -34
13 5 14 9 4 21 -10 12 -10 18 1 31 10 13 10 17 -2 25 -19 12 -29 11 -29 -1z"/>
<path d="M708 1455 c-9 -14 22 -77 35 -72 17 5 20 27 5 27 -8 0 -19 12 -24 28
-5 15 -13 22 -16 17z"/>
<path d="M2195 1450 c-3 -5 1 -10 10 -10 13 0 14 -4 4 -21 -7 -14 -17 -19 -30
-16 -13 3 -19 1 -16 -6 2 -7 11 -13 20 -15 19 -4 51 42 43 63 -6 17 -22 20
-31 5z"/>
<path d="M2443 1433 c-3 -10 -19 -51 -35 -90 -16 -40 -28 -77 -26 -81 6 -16
68 17 68 36 -1 15 -2 15 -13 2 -23 -28 -36 -21 -20 10 8 17 18 30 22 30 5 0 6
12 4 28 -3 20 -2 23 6 12 7 -10 9 -3 8 28 -2 46 -4 51 -14 25z"/>
<path d="M101 1429 c-17 -6 -21 -13 -14 -20 12 -12 65 9 57 22 -6 11 -12 11
-43 -2z"/>
<path d="M650 1427 c0 -23 28 -77 40 -77 6 0 10 10 10 22 0 12 -3 18 -7 14 -4
-4 -15 8 -25 26 -11 22 -17 27 -18 15z"/>
<path d="M2251 1431 c-7 -5 -10 -14 -6 -20 4 -7 1 -19 -6 -27 -6 -8 -9 -17 -6
-20 3 -3 13 6 22 20 20 30 17 60 -4 47z"/>
<path d="M2281 1389 c-15 -24 -17 -36 -9 -46 16 -20 45 -16 62 9 18 25 21 58
7 58 -5 0 -16 3 -25 6 -10 4 -22 -5 -35 -27z m49 -9 c0 -20 -35 -46 -44 -32
-6 11 21 52 35 52 5 0 9 -9 9 -20z"/>
<path d="M143 1398 c-5 -7 -7 -26 -3 -43 l6 -30 13 24 c10 18 10 22 1 16 -10
-6 -11 -1 -6 19 7 28 4 33 -11 14z"/>
<path d="M170 1396 c0 -9 13 -19 33 -24 40 -11 46 -7 22 16 -10 9 -14 11 -10
3 5 -9 -1 -7 -19 4 -23 15 -26 16 -26 1z"/>
<path d="M587 1403 c-12 -12 -7 -22 8 -17 21 8 42 -40 26 -60 -8 -10 -9 -16
-2 -21 6 -3 16 5 22 19 21 45 -24 110 -54 79z"/>
<path d="M2476 1395 c-3 -8 -2 -15 2 -15 5 0 16 -16 25 -35 9 -19 22 -35 28
-35 7 0 5 8 -6 20 -17 19 -17 20 1 20 14 1 12 5 -11 17 -17 9 -25 18 -17 21 6
2 10 8 6 13 -8 14 -21 11 -28 -6z"/>
<path d="M506 1368 c-9 -12 -16 -17 -16 -10 0 6 -5 12 -11 12 -8 0 -8 -5 1
-15 10 -12 9 -16 -2 -20 -8 -3 -15 -12 -15 -20 0 -11 8 -13 26 -8 32 7 40 13
18 13 -9 0 -17 5 -17 11 0 5 5 7 10 4 6 -4 9 -2 8 4 -2 5 6 16 16 24 12 9 15
16 8 21 -6 3 -18 -4 -26 -16z"/>
<path d="M2351 1357 c-25 -41 -26 -50 -5 -68 15 -12 16 -11 10 8 -9 27 9 63
30 63 9 0 14 5 12 12 -8 24 -26 18 -47 -15z"/>
<path d="M2039 1371 c8 -5 11 -16 7 -29 -5 -15 -1 -24 15 -33 19 -10 25 -9 38
7 9 11 24 18 34 16 9 -2 17 2 17 8 0 6 -5 8 -11 5 -6 -4 -16 1 -24 11 -13 18
-14 18 -33 1 -19 -17 -20 -17 -25 3 -3 11 -11 20 -19 20 -11 0 -11 -2 1 -9z"/>
<path d="M713 1342 c-29 -14 -53 -30 -53 -34 0 -5 22 3 50 17 58 29 61 30 54
10 -7 -17 21 -65 36 -65 6 0 3 11 -6 25 -9 14 -14 32 -10 40 3 8 1 15 -5 15
-6 0 -7 5 -4 10 9 15 -5 11 -62 -18z"/>
<path d="M2005 1335 l-29 -24 24 -9 c57 -21 56 -20 37 -21 -10 -1 -15 -5 -12
-11 3 -5 3 -16 -2 -22 -25 -42 -1 -77 36 -52 25 18 25 54 1 62 -13 5 -13 3 -1
-12 12 -15 12 -19 -2 -33 -20 -20 -33 -11 -22 14 5 10 9 24 11 31 5 25 14 26
44 4 36 -27 49 -28 26 -3 -10 11 -40 28 -67 37 l-49 18 22 23 c28 30 21 29
-17 -2z"/>
<path d="M2630 1322 c0 -5 7 -15 15 -22 12 -10 15 -10 15 0 0 10 3 10 15 0 9
-7 18 -10 22 -7 3 4 11 3 17 -2 6 -4 33 -14 59 -21 26 -7 44 -16 40 -20 -12
-10 -107 -45 -115 -42 -5 1 -8 -3 -8 -9 0 -5 -4 -7 -10 -4 -5 3 -10 1 -10 -5
0 -6 -4 -8 -10 -5 -5 3 -10 1 -10 -5 0 -6 -4 -8 -10 -5 -5 3 -19 1 -30 -5 -25
-13 -27 -35 -2 -25 9 4 23 8 30 8 6 0 12 4 12 9 0 5 5 6 10 3 6 -3 10 -1 10 5
0 6 5 8 10 5 6 -3 10 -1 10 5 0 6 4 9 8 6 5 -3 40 6 78 19 38 14 86 25 107 25
20 0 37 4 37 8 0 19 -160 78 -185 68 -8 -3 -17 -1 -21 5 -3 6 -12 8 -19 5 -7
-2 -18 1 -24 7 -8 8 -11 8 -11 -2 0 -11 -3 -11 -15 -1 -8 7 -15 8 -15 2z"/>
<path d="M2155 1304 c-20 -20 -16 -58 6 -62 17 -3 61 56 53 70 -9 14 -42 9
-59 -8z m45 -1 c-1 -14 -27 -43 -39 -43 -14 0 -14 6 -1 31 10 18 40 27 40 12z"/>
<path d="M710 1303 c1 -13 48 -63 60 -63 5 0 10 7 10 16 0 10 -6 14 -14 11 -8
-3 -19 5 -26 19 -13 23 -30 33 -30 17z"/>
<path d="M1954 1286 c-3 -8 -11 -13 -19 -10 -7 3 -19 -1 -26 -9 -8 -7 -21 -14
-29 -14 -8 0 -69 -26 -135 -58 -66 -31 -137 -64 -157 -72 -42 -17 -47 -27 -21
-38 12 -4 24 1 34 14 9 11 19 17 23 14 3 -4 6 0 6 8 1 10 3 9 11 -3 12 -22 33
-24 25 -3 -3 9 0 15 10 15 8 0 18 -8 21 -17 4 -10 12 -22 20 -26 20 -12 16
-27 -8 -27 -11 0 -17 4 -14 10 3 6 -1 7 -9 4 -22 -9 -9 -24 20 -24 30 0 32
-16 2 -23 -12 -4 -19 -9 -15 -13 8 -8 67 15 67 27 0 5 -8 9 -17 9 -13 0 -14 3
-5 12 16 16 15 28 -3 28 -8 0 -15 5 -15 11 0 14 -26 39 -42 40 -7 0 -2 5 11
10 13 5 33 7 43 3 15 -4 19 -1 16 13 -2 12 4 19 20 21 12 2 22 7 22 12 0 4 11
7 25 6 15 -2 22 1 18 7 -4 6 0 8 10 4 9 -3 19 -2 22 3 4 6 0 10 -7 11 -13 1
46 19 69 21 17 2 60 48 44 48 -6 0 -14 -6 -17 -14z"/>
<path d="M660 1271 l-25 -21 31 6 c25 5 32 2 41 -19 9 -20 8 -28 -5 -42 -16
-16 -16 -17 3 -13 30 5 31 50 3 83 l-24 27 -24 -21z"/>
<path d="M2229 1283 c-1 -5 -2 -12 -3 -18 0 -5 -7 -20 -14 -32 -7 -13 -9 -23
-4 -23 14 0 62 66 55 74 -9 8 -33 8 -34 -1z"/>
<path d="M2274 1246 c-27 -30 -35 -56 -24 -76 16 -29 32 -25 18 5 -13 30 5 59
34 52 21 -6 23 4 6 21 -15 15 -20 15 -34 -2z"/>
<path d="M760 1201 c-25 -21 -43 -41 -40 -44 3 -3 28 15 55 39 28 24 46 44 40
44 -5 0 -30 -18 -55 -39z"/>
<path d="M1946 1215 c19 -14 19 -14 -1 -15 -15 0 -17 -2 -6 -9 11 -7 9 -11 -8
-21 -19 -10 -25 -9 -35 6 -10 13 -15 14 -21 4 -5 -9 -4 -11 3 -6 7 4 12 1 12
-8 0 -29 21 -27 52 5 l32 32 69 -74 c37 -41 73 -85 79 -99 6 -14 12 -20 15
-13 12 32 -161 213 -203 213 -4 0 1 -7 12 -15z"/>
<path d="M2192 1181 c29 -27 55 -47 58 -44 6 6 -88 93 -102 93 -5 0 15 -22 44
-49z"/>
<path d="M2094 1205 c3 -9 -3 -20 -14 -27 -11 -7 -20 -17 -20 -22 0 -5 14 3
30 19 34 32 38 45 14 45 -10 0 -14 -5 -10 -15z"/>
<path d="M2525 1201 c-20 -63 -234 -198 -416 -262 -124 -44 -129 -45 -129 -25
0 8 -5 18 -11 22 -7 4 -9 -2 -7 -17 2 -18 -4 -26 -26 -34 -22 -7 -30 -7 -33 3
-3 6 -9 12 -15 12 -6 0 -7 -7 -4 -16 4 -12 2 -15 -9 -11 -8 4 -17 2 -21 -4 -3
-6 -12 -8 -19 -5 -8 3 -15 0 -17 -6 -3 -7 -79 -11 -223 -13 -246 -2 -235 -2
-235 -14 0 -15 52 -31 157 -50 55 -9 112 -25 126 -34 l26 -17 0 -161 c0 -89 2
-163 5 -166 2 -3 55 7 118 21 62 14 141 28 175 32 38 3 72 13 86 25 13 10 39
21 58 24 54 9 159 45 221 76 102 51 159 117 172 199 3 19 8 89 11 156 3 67 10
136 15 155 17 57 23 129 12 129 -6 0 -13 -9 -17 -19z m-9 -68 c-15 -50 -31
-216 -27 -284 8 -147 -101 -248 -325 -304 -51 -13 -106 -33 -123 -44 -19 -14
-44 -21 -74 -21 -41 0 -214 -37 -259 -55 -14 -6 -17 1 -20 42 -2 26 -1 93 2
147 3 58 1 108 -5 120 -15 29 -63 53 -120 60 -193 23 -188 35 12 29 117 -4
192 -2 235 7 93 18 282 75 365 109 86 35 279 150 313 186 28 30 33 31 26 8z"/>
<path d="M2468 1076 c-8 -8 -38 -26 -66 -40 -29 -15 -52 -30 -52 -34 0 -5 16
-23 35 -42 44 -43 46 -28 3 19 -25 27 -26 30 -5 12 30 -27 36 -19 10 13 -10
12 2 3 25 -19 23 -21 42 -41 42 -44 0 -2 -9 4 -20 14 -30 27 -34 12 -5 -15 14
-13 26 -19 26 -14 1 5 3 25 5 44 5 54 13 101 19 111 9 14 -2 11 -17 -5z"/>
<path d="M2330 993 c0 -6 -9 -15 -21 -18 -20 -7 -19 -9 17 -46 48 -50 37 -51
-18 -1 -23 20 -38 31 -33 23 6 -11 4 -13 -11 -7 -14 5 -11 -1 10 -23 34 -36
25 -42 -13 -9 -20 18 -19 15 4 -10 16 -18 31 -28 33 -22 3 7 9 7 20 -2 10 -7
5 1 -10 18 -42 45 -33 53 11 10 33 -32 39 -35 45 -20 5 12 -4 29 -26 53 -24
26 -26 30 -5 12 29 -27 37 -19 10 11 -27 30 -9 20 23 -13 23 -24 25 -29 9 -23
-16 6 -18 5 -7 -7 9 -10 15 -10 24 -1 10 10 4 20 -25 50 -20 20 -37 31 -37 25z"/>
<path d="M2203 922 c-9 -6 0 -20 30 -48 38 -36 39 -36 9 -4 -39 44 -42 63 -4
29 l27 -24 -24 28 c-14 15 -25 27 -25 27 -1 0 -7 -4 -13 -8z"/>
<path d="M2397 903 c-20 -23 -37 -67 -37 -97 0 -24 -35 -76 -51 -76 -5 0 -15
11 -21 25 -15 33 -28 32 -28 -2 -1 -30 -26 -71 -37 -60 -3 4 -2 27 4 51 15 67
-9 88 -38 34 -7 -13 -7 -18 -1 -14 7 4 10 -13 9 -50 -2 -67 14 -81 40 -36 15
25 22 30 44 25 27 -5 35 0 73 52 9 11 16 14 16 8 0 -18 24 -16 47 5 24 21 47
62 39 70 -3 3 -6 0 -6 -6 0 -15 -29 -42 -46 -42 -21 0 -17 18 12 52 38 46 20
104 -19 61z m18 -35 c-3 -12 -11 -29 -20 -37 -13 -14 -15 -14 -15 1 0 28 19
70 29 63 6 -3 8 -15 6 -27z"/>
<path d="M2291 834 c-23 -29 -27 -44 -11 -44 6 0 10 9 10 19 0 25 18 37 26 17
8 -21 24 -10 24 15 0 27 -25 24 -49 -7z"/>
<path d="M1960 775 c0 -30 25 -34 40 -6 14 28 13 31 -15 31 -20 0 -25 -5 -25
-25z"/>
<path d="M1742 767 c-36 -39 -29 -80 23 -136 49 -53 53 -62 29 -85 -24 -24
-44 -19 -55 14 -12 34 -29 31 -29 -5 0 -46 57 -59 95 -21 20 20 24 33 21 67
-4 47 -23 67 -59 64 -12 -1 -14 0 -5 2 16 4 16 7 -3 32 -17 23 -19 32 -10 50
16 29 39 26 53 -5 11 -24 13 -24 25 -8 11 15 10 21 -4 36 -22 25 -55 23 -81
-5z"/>
<path d="M2143 773 c-8 -3 -13 -23 -13 -52 0 -37 -5 -52 -23 -69 -19 -18 -46
-29 -48 -19 -10 51 -8 85 5 96 14 12 16 10 16 -11 0 -13 -6 -30 -12 -37 -11
-11 -10 -13 2 -9 8 2 21 17 29 32 11 25 11 30 -3 44 -15 15 -18 14 -41 -9 -15
-15 -27 -41 -30 -64 -6 -41 -22 -68 -36 -60 -8 6 -6 40 6 88 4 16 3 27 -3 27
-18 0 -30 -24 -37 -73 -6 -36 -14 -52 -32 -65 -24 -15 -26 -15 -39 3 -8 11
-11 31 -8 49 7 43 21 55 32 27 7 -20 9 -21 21 -7 11 13 11 19 1 31 -18 22 -36
18 -59 -11 -25 -32 -29 -105 -6 -124 17 -14 46 -6 70 20 17 19 19 19 31 2 13
-16 15 -16 29 2 8 10 16 24 18 30 3 8 8 7 18 -1 17 -16 53 -17 43 -1 -5 7 -3
8 5 3 8 -4 19 2 29 16 13 19 16 20 21 6 4 -10 11 -13 19 -8 8 4 13 32 13 75 1
72 0 76 -18 69z"/>
<path d="M807 1203 c-13 -12 -7 -40 11 -56 30 -27 38 -20 11 9 -16 18 -20 28
-11 31 6 3 12 9 12 14 0 11 -14 12 -23 2z"/>
<path d="M2825 1191 c-79 -24 -218 -77 -244 -93 -30 -19 -33 -31 -42 -178 -4
-74 -12 -157 -18 -185 -14 -63 -71 -132 -137 -165 -79 -39 -354 -131 -419
-140 -33 -4 -112 -19 -175 -34 -103 -23 -118 -29 -145 -60 -50 -56 -100 -73
-320 -103 -72 -10 -285 -10 -372 0 -220 26 -520 100 -562 141 -30 29 -43 33
-35 12 16 -41 91 -75 239 -111 87 -21 112 -26 279 -55 189 -34 458 -26 636 17
77 19 117 41 147 81 17 23 34 32 85 42 35 6 63 11 63 11 0 -1 23 5 50 13 28 8
77 18 110 21 33 4 78 15 100 25 22 9 56 21 75 25 19 4 89 28 155 52 211 79
248 138 260 417 3 68 10 125 16 133 16 18 142 76 249 114 120 43 123 55 5 20z"/>
<path d="M1830 1169 c19 -11 50 -43 68 -71 18 -27 36 -48 39 -45 17 18 -100
138 -133 137 -5 0 7 -10 26 -21z"/>
<path d="M315 1172 c-1 -2 -23 -5 -47 -7 -83 -7 -211 -25 -216 -30 -13 -13 10
-16 39 -6 18 6 44 10 58 10 17 -1 9 -5 -24 -13 l-50 -12 35 -19 c56 -29 150
-95 150 -105 0 -5 -17 -18 -37 -29 -42 -22 -193 -165 -193 -182 0 -7 10 -9 28
-5 64 15 151 26 205 26 46 0 57 3 57 16 0 15 -11 16 -87 11 -49 -4 -98 -9
-110 -13 -46 -13 -21 18 76 94 55 42 99 82 97 87 -1 6 -35 33 -74 62 -40 28
-69 54 -65 56 5 3 35 8 68 11 86 11 106 16 98 30 -5 8 -3 8 8 0 24 -18 55 -14
56 7 1 10 -3 19 -8 19 -6 0 -8 -4 -5 -9 3 -5 -1 -11 -9 -15 -8 -3 -17 0 -21 6
-4 7 -3 8 4 4 7 -4 12 -3 12 3 0 9 -36 12 -45 3z"/>
<path d="M416 1159 c11 -12 20 -16 22 -9 3 8 9 7 20 -2 14 -12 14 -11 1 10 -8
12 -17 22 -22 22 -4 0 -5 -4 -2 -10 3 -5 1 -10 -4 -10 -6 0 -11 5 -11 10 0 6
-5 10 -12 10 -6 0 -3 -9 8 -21z"/>
<path d="M650 1164 c-14 -17 -14 -18 3 -5 14 11 17 11 17 -1 0 -8 -5 -19 -11
-25 -8 -8 -7 -13 2 -18 7 -5 10 -4 6 2 -4 6 0 14 9 17 12 5 14 1 10 -17 -3
-12 -3 -16 0 -8 5 11 8 11 15 0 7 -12 9 -11 9 1 0 8 -10 28 -23 44 -22 27 -23
27 -37 10z"/>
<path d="M2138 1167 c8 -10 6 -16 -9 -25 -10 -7 -19 -17 -19 -24 0 -13 38 19
51 44 8 15 6 18 -12 18 -16 0 -19 -3 -11 -13z"/>
<path d="M2383 1160 c-3 -11 -9 -17 -14 -14 -5 3 -9 0 -9 -6 0 -7 6 -10 13 -7
8 3 20 1 28 -4 10 -5 5 -8 -14 -6 -15 1 -32 8 -36 16 -7 10 -10 10 -16 1 -4
-7 -2 -16 5 -20 7 -4 9 -13 5 -20 -4 -7 -10 -8 -14 -3 -10 15 -40 -23 -30 -38
7 -11 9 -11 9 -1 0 7 4 11 9 8 5 -3 11 1 15 9 3 8 12 15 21 15 8 0 15 4 15 9
0 5 10 11 22 13 13 2 24 11 26 21 2 10 -2 16 -10 15 -8 -2 -12 4 -10 15 4 24
-9 22 -15 -3z"/>
<path d="M1941 1144 c-13 -13 -22 -27 -18 -30 8 -8 67 38 61 48 -8 12 -16 8
-43 -18z"/>
<path d="M752 1148 c-19 -19 -15 -32 22 -67 l34 -33 16 23 c21 31 20 41 -7 67
-26 25 -47 28 -65 10z m62 -30 c8 -13 7 -21 -2 -30 -17 -17 -46 1 -50 31 -3
18 1 22 19 19 12 -2 27 -11 33 -20z"/>
<path d="M1743 1111 c20 -25 42 -60 49 -78 7 -18 16 -33 20 -33 15 0 -40 95
-73 125 -32 29 -32 29 4 -14z"/>
<path d="M2167 1126 c-15 -14 -27 -32 -27 -40 0 -26 12 -46 28 -46 12 0 13 3
4 12 -30 30 3 82 39 60 24 -15 25 0 1 22 -18 15 -20 15 -45 -8z"/>
<path d="M430 1130 l-55 -7 63 -1 c40 -1 61 2 57 8 -3 6 -7 9 -8 8 -1 -1 -27
-4 -57 -8z"/>
<path d="M1990 1117 c0 -7 -9 -18 -21 -25 -12 -7 -19 -16 -16 -19 8 -7 67 36
67 48 0 5 -7 9 -15 9 -8 0 -15 -6 -15 -13z"/>
<path d="M24 1111 c4 -6 24 -20 45 -31 21 -10 59 -35 85 -55 26 -20 53 -34 59
-32 7 2 -13 19 -43 39 -93 58 -153 91 -146 79z"/>
<path d="M385 1099 c-69 -5 -69 -5 28 -7 53 -1 97 2 97 7 0 9 -19 9 -125 0z"/>
<path d="M1814 1086 c-17 -13 -17 -16 -4 -30 14 -14 19 -14 48 4 18 11 30 25
27 30 -9 15 -48 12 -71 -4z m46 -11 c-13 -16 -40 -20 -40 -7 0 14 12 22 33 22
16 0 17 -3 7 -15z"/>
<path d="M1487 1076 c-15 -12 -15 -15 -2 -26 8 -7 12 -16 9 -21 -3 -5 2 -9 10
-9 9 0 16 7 16 15 0 8 -5 15 -11 15 -6 0 -8 9 -4 20 7 23 6 24 -18 6z"/>
<path d="M1526 1079 c3 -6 9 -34 13 -63 3 -28 9 -46 12 -41 8 15 -11 115 -22
115 -6 0 -7 -5 -3 -11z"/>
<path d="M380 1069 c-23 -4 -2 -6 57 -6 51 -1 90 3 87 8 -6 10 -89 9 -144 -2z"/>
<path d="M727 1067 c-3 -9 -3 -16 1 -16 26 4 32 -2 22 -21 -8 -15 -8 -20 1
-20 8 0 8 -4 1 -12 -10 -12 -12 -19 -12 -34 0 -4 -7 -1 -15 6 -9 7 -18 10 -21
7 -9 -8 6 -28 16 -22 5 3 8 -4 7 -15 -1 -11 -7 -20 -14 -20 -7 0 -13 -4 -13
-10 0 -5 6 -10 13 -10 7 0 18 -9 25 -20 12 -20 12 -20 51 -1 32 17 51 38 51
57 0 2 -8 0 -17 -3 -16 -6 -17 -5 -3 12 13 16 13 18 0 13 -9 -3 -14 -16 -13
-32 2 -24 -10 -36 -20 -18 -2 4 -2 1 -1 -5 2 -7 -1 -13 -6 -13 -6 0 -10 7 -10
15 0 8 -4 15 -10 15 -5 0 -10 -7 -10 -16 0 -8 -5 -12 -10 -9 -13 8 -5 56 11
66 6 4 12 21 13 38 1 20 6 31 15 31 11 0 10 5 -5 19 -10 10 -22 17 -26 15 -3
-2 -8 1 -10 8 -3 8 -7 6 -11 -5z"/>
<path d="M1203 977 c-122 -56 -224 -105 -227 -108 -9 -9 42 -130 64 -154 18
-19 36 -23 125 -28 62 -4 115 -3 131 3 24 9 26 14 20 48 -17 95 -17 107 -2
127 13 19 26 20 188 21 95 0 196 4 223 8 28 4 104 31 170 60 198 88 182 79
167 104 -7 10 -29 3 -96 -27 -48 -22 -131 -57 -184 -77 -82 -30 -106 -35 -158
-32 -80 5 -134 40 -166 109 -13 26 -25 48 -28 48 -3 0 -105 -46 -227 -102z
m219 61 c-18 -18 -15 -28 8 -28 11 0 20 -4 20 -10 0 -5 -6 -10 -14 -10 -8 0
-18 -5 -21 -10 -4 -6 -3 -10 2 -9 22 4 31 -3 26 -21 -5 -21 -25 -29 -20 -9 1
6 -4 14 -12 17 -11 4 -13 -2 -8 -27 7 -32 -6 -43 -17 -15 -4 10 -12 14 -22 10
-11 -4 -8 5 10 29 18 23 25 42 21 55 -8 25 1 40 23 40 12 0 13 -3 4 -12z m-62
-23 c0 -9 -9 -34 -20 -56 -12 -22 -18 -44 -15 -48 2 -5 -2 -14 -9 -20 -12 -10
-17 -3 -30 40 -8 29 -13 56 -10 61 9 14 22 9 26 -9 3 -14 8 -10 21 15 18 34
37 42 37 17z m-105 -52 c-8 -21 -8 -22 -6 -45 0 -10 11 -26 23 -38 12 -11 19
-22 16 -26 -12 -11 -50 18 -59 46 -6 15 -19 30 -31 33 -11 3 -17 10 -14 15 3
6 14 8 25 5 11 -3 21 2 24 11 4 9 11 16 18 16 7 0 8 -7 4 -17z m231 -18 c-3
-9 2 -11 16 -7 14 3 19 1 15 -6 -4 -5 -1 -13 5 -15 7 -3 -2 -3 -19 0 -21 3
-33 1 -33 -6 0 -6 -7 -11 -15 -11 -19 0 -19 4 0 41 15 28 42 32 31 4z m-277
-55 c12 -22 30 -45 39 -51 15 -9 14 -10 -3 -4 -11 4 -27 9 -36 12 -8 2 -23 18
-33 34 -9 16 -22 29 -27 29 -6 0 -7 5 -4 10 13 22 42 8 64 -30z m-61 -12 c3
-11 32 -33 72 -53 70 -35 80 -48 79 -93 l0 -27 -10 24 c-7 18 -14 22 -32 17
-12 -3 -25 -6 -29 -6 -4 0 -10 -9 -13 -20 -3 -11 -13 -20 -21 -20 -9 0 -12 5
-8 11 4 7 0 9 -14 5 -21 -7 -152 51 -152 66 0 5 9 4 19 -2 11 -5 23 -10 28
-10 4 1 -10 10 -32 22 -22 12 -35 23 -28 25 6 2 30 -5 53 -17 23 -12 44 -19
47 -16 3 3 -7 10 -23 16 -23 9 -25 13 -14 20 27 17 60 10 91 -19 17 -17 37
-27 45 -24 8 3 21 0 28 -6 10 -8 16 -9 21 -2 3 6 -23 23 -60 40 -36 16 -65 34
-65 40 0 6 -14 4 -34 -4 -30 -13 -38 -13 -65 1 -37 19 -32 38 6 23 28 -10 83
-3 83 11 0 4 -10 10 -22 14 -19 5 -20 8 -9 15 19 12 52 -5 59 -31z"/>
<path d="M1649 1063 c5 -11 13 -35 16 -53 6 -34 24 -74 25 -54 0 22 -31 113
-41 120 -8 4 -8 1 0 -13z"/>
<path d="M1625 1050 c3 -5 -3 -10 -13 -10 -11 0 -27 -11 -36 -25 -15 -22 -15
-26 -2 -31 9 -3 21 -4 28 -1 8 4 6 6 -4 6 -22 1 -23 17 -2 25 26 10 36 7 30
-9 -3 -9 0 -15 9 -15 17 0 20 25 5 35 -5 3 -7 12 -3 20 3 8 0 15 -7 15 -6 0
-8 -4 -5 -10z"/>
<path d="M1880 1050 c0 -6 -12 -15 -27 -21 -16 -6 -23 -13 -16 -16 17 -6 75
26 68 37 -8 13 -25 13 -25 0z"/>
<path d="M355 1039 c-19 -4 0 -7 53 -7 46 0 80 3 77 7 -9 8 -94 8 -130 0z"/>
<path d="M859 1029 c-10 -19 -7 -25 17 -44 16 -13 31 -21 34 -18 3 2 -6 13
-20 23 -20 15 -22 21 -12 33 8 10 9 17 3 21 -6 4 -15 -3 -22 -15z"/>
<path d="M701 1024 c-1 -6 -12 -22 -26 -36 -24 -24 -24 -25 -6 -42 12 -11 21
-14 26 -7 3 6 -2 11 -12 11 -14 0 -15 2 -5 9 8 4 13 12 12 17 -1 4 5 11 13 14
10 3 12 11 6 25 -4 11 -8 15 -8 9z"/>
<path d="M348 1012 c-10 -4 21 -6 69 -5 47 1 88 5 91 8 8 7 -140 5 -160 -3z"/>
<path d="M535 1001 c-107 -43 -189 -102 -196 -141 -2 -8 2 -31 9 -50 14 -44
20 -93 28 -255 7 -149 14 -164 93 -189 91 -30 338 -87 426 -98 101 -13 388
-17 450 -6 187 33 260 58 289 100 14 19 15 45 10 168 -4 80 -8 147 -10 148 -1
2 -20 -2 -41 -10 -28 -10 -104 -13 -298 -12 -280 0 -451 14 -585 46 -47 11
-96 22 -110 24 -115 22 -222 74 -235 115 -10 31 45 83 135 127 85 41 85 41 79
45 -2 2 -22 -4 -44 -12z m-25 -272 c36 -11 76 -23 89 -25 13 -3 67 -16 120
-29 122 -31 431 -55 636 -50 149 3 170 5 233 19 l32 8 1 -84 c0 -46 3 -103 6
-126 4 -38 2 -47 -23 -73 -65 -67 -391 -114 -619 -88 -202 22 -497 89 -548
123 l-32 22 -6 119 c-4 66 -10 148 -14 183 l-8 63 34 -20 c19 -12 63 -31 99
-42z"/>
<path d="M400 741 c0 -25 14 -41 37 -41 14 0 32 -8 41 -18 10 -9 14 -13 10 -8
-16 21 -7 28 12 11 11 -10 20 -13 20 -7 0 7 7 9 17 5 11 -4 14 -3 9 6 -4 6
-13 10 -19 9 -7 -1 -23 4 -37 12 -14 7 -26 13 -28 11 -1 -1 -16 6 -32 14 -17
9 -30 11 -30 6z"/>
<path d="M415 663 c-3 -10 -2 -19 2 -20 4 -2 7 -24 6 -51 l-2 -47 14 45 c9 27
11 48 6 53 -5 5 -7 16 -4 23 3 8 1 14 -5 14 -5 0 -13 -8 -17 -17z"/>
<path d="M517 648 c-66 -38 -95 -138 -46 -153 11 -4 17 -10 14 -15 -8 -13 40
-23 79 -17 25 4 35 1 44 -14 14 -22 45 -25 61 -5 16 19 51 8 51 -15 0 -12 7
-19 20 -19 13 0 20 7 20 19 0 11 9 40 20 65 18 44 18 46 1 46 -11 0 -25 -15
-36 -40 -10 -22 -24 -40 -32 -40 -18 0 -16 25 3 56 9 13 14 27 11 30 -9 9 -77
23 -72 14 2 -4 -7 -12 -20 -18 -13 -6 -27 -23 -31 -37 -8 -32 -48 -44 -83 -24
-51 28 -31 122 33 165 30 19 56 13 56 -14 0 -25 -19 -42 -47 -42 -27 0 -30
-15 -6 -29 12 -6 26 -5 44 5 41 21 51 60 23 88 -21 22 -62 20 -107 -6z m169
-120 c-9 -12 -13 -31 -10 -43 4 -15 0 -24 -12 -29 -9 -4 -17 -5 -18 -4 -1 2
-10 13 -21 26 -13 15 -14 21 -4 17 9 -3 20 6 31 25 9 16 24 30 33 30 15 0 15
-2 1 -22z"/>
<path d="M1328 573 c-10 -2 -18 -8 -19 -11 -3 -30 -10 -46 -21 -54 -9 -7 -10
-11 -1 -14 8 -4 9 -14 3 -34 -4 -16 -6 -31 -3 -33 2 -3 -4 -10 -16 -16 -17 -9
-22 -8 -32 10 -6 12 -7 19 -1 15 5 -3 12 7 15 22 3 15 9 35 12 44 5 13 2 15
-14 11 -12 -3 -21 -9 -21 -14 0 -5 0 -11 0 -14 1 -12 -30 -62 -44 -74 -25 -21
-32 13 -12 61 18 46 17 51 -8 42 -22 -9 -36 -45 -36 -94 0 -48 14 -58 49 -33
26 20 26 20 41 1 15 -20 16 -20 40 0 23 19 26 19 43 4 16 -14 20 -14 45 5 23
17 29 18 40 7 37 -40 122 27 113 88 0 4 6 5 14 1 12 -4 14 -14 9 -39 -8 -45
17 -56 52 -24 29 28 33 51 4 25 -18 -16 -20 -16 -26 -1 -3 8 -1 30 5 47 6 18
11 39 11 48 -1 13 -3 13 -15 -3 -8 -11 -13 -29 -9 -40 4 -15 3 -17 -4 -8 -5 8
-13 13 -18 13 -5 0 -9 5 -10 12 -2 27 -5 29 -20 16 -11 -9 -14 -22 -10 -43 5
-22 1 -35 -16 -53 -24 -26 -38 -29 -56 -11 -9 9 -4 16 19 30 22 13 29 25 27
41 -7 51 -77 18 -84 -39 -3 -33 -30 -62 -44 -48 -14 14 0 84 16 84 8 0 14 5
14 10 0 6 -5 10 -11 10 -7 0 -8 11 -4 30 4 17 5 29 3 29 -2 -1 -11 -3 -20 -6z
m103 -92 c-7 -12 -16 -21 -21 -21 -14 0 -12 34 2 48 18 18 32 -2 19 -27z"/>
<path d="M516 544 c-5 -12 1 -25 16 -38 13 -12 17 -14 10 -6 -23 27 -12 34 16
9 l27 -24 -25 30 c-14 17 -28 34 -31 38 -3 5 -9 0 -13 -9z"/>
<path d="M819 520 c-16 -13 -18 -18 -6 -14 21 8 21 6 -3 -51 -24 -57 -24 -55
-1 -55 13 0 23 11 31 34 11 35 46 74 56 63 4 -3 0 -23 -8 -44 -9 -21 -13 -44
-11 -50 8 -23 44 -14 74 18 30 32 36 28 20 -13 -4 -13 -11 -35 -15 -50 -6 -25
-4 -28 16 -24 13 1 24 8 24 14 1 7 2 18 3 26 1 9 10 12 27 8 53 -10 108 88 70
126 -13 14 -20 14 -36 4 -24 -15 -33 -15 -25 -2 3 6 -1 10 -9 10 -9 0 -23 -12
-33 -27 -25 -42 -65 -83 -74 -77 -4 2 1 23 11 46 29 65 12 85 -41 47 l-29 -20
2 22 c4 30 -14 34 -43 9z m251 -57 c-1 -34 -21 -63 -44 -63 -15 0 -16 6 -11
33 13 59 55 82 55 30z"/>
<path d="M422 475 c1 -19 10 -43 20 -52 10 -9 18 -13 18 -8 0 4 7 2 15 -5 13
-11 14 -10 9 6 -5 14 1 12 27 -11 19 -16 12 -6 -16 23 -48 51 -63 63 -49 40 4
-7 3 -8 -4 -4 -6 4 -9 13 -6 20 3 8 0 17 -6 21 -7 4 -10 -5 -8 -30z"/>
<path d="M835 980 c22 -24 35 -40 28 -36 -7 4 -11 -1 -10 -13 1 -16 4 -18 22
-9 11 6 22 12 24 14 4 3 -49 50 -83 73 -12 8 -3 -5 19 -29z"/>
<path d="M1733 1004 c-33 -14 -45 -44 -18 -44 8 0 12 6 9 14 -6 16 30 28 44
14 6 -6 12 -6 16 0 12 20 -18 29 -51 16z"/>
<path d="M2100 1002 c0 -24 -34 -47 -56 -38 -8 3 -14 -1 -14 -9 0 -23 22 -18
60 14 28 24 33 32 23 42 -11 11 -13 9 -13 -9z"/>
<path d="M511 945 c-109 -58 -136 -98 -88 -129 32 -21 197 -66 197 -53 0 5 9
2 20 -8 14 -13 20 -14 20 -5 0 9 6 7 20 -5 20 -18 21 -18 14 1 -7 17 -6 17 9
5 10 -8 19 -12 20 -10 1 2 -31 35 -73 74 l-75 70 60 -63 c70 -73 63 -83 -10
-14 l-50 47 45 -47 c50 -54 44 -65 -9 -15 -20 17 -27 22 -17 10 17 -20 10 -34
-7 -16 -4 3 -22 8 -39 10 -18 2 -52 11 -75 20 -64 24 -59 51 15 91 l57 31 90
-87 90 -87 -88 91 c-48 50 -87 95 -87 100 0 5 42 -32 92 -81 91 -88 91 -88 15
-10 -42 44 -77 85 -77 90 0 5 33 -22 72 -60 l73 -70 -70 76 c-39 42 -72 77
-75 78 -3 0 -34 -15 -69 -34z"/>
<path d="M1621 963 c-7 -8 -11 -17 -8 -20 8 -7 47 7 47 17 0 15 -25 17 -39 3z"/>
<path d="M906 834 c-24 -23 -19 -27 9 -8 24 16 25 16 26 -7 1 -13 1 -27 1 -31
-1 -3 5 -12 13 -18 20 -17 19 -41 -1 -33 -8 3 -13 12 -10 19 4 10 -3 14 -19
14 -16 0 -25 6 -25 16 0 8 -4 12 -10 9 -5 -3 -10 1 -10 9 0 9 -5 16 -11 16 -5
0 -7 -4 -4 -10 3 -6 -1 -7 -9 -4 -24 9 -19 -9 7 -26 66 -42 132 -80 139 -80 4
0 -4 21 -17 46 -14 26 -25 54 -25 63 0 17 -18 41 -31 41 -4 0 -15 -7 -23 -16z"/>
<path d="M758 795 c-2 -19 0 -35 5 -35 5 0 7 -6 4 -13 -3 -8 0 -14 6 -15 7 -1
28 -4 47 -7 l35 -6 -30 25 c-16 14 -36 26 -44 26 -10 0 -12 8 -7 30 3 17 2 30
-3 30 -5 0 -11 -16 -13 -35z"/>
<path d="M1400 748 c63 -67 57 -78 -10 -16 -45 43 -45 43 4 -9 28 -29 52 -49
55 -45 4 4 23 7 44 6 20 0 37 3 37 7 0 4 9 5 19 2 11 -3 37 1 58 8 l37 12 -23
15 c-22 15 -39 19 -112 25 -19 2 -41 7 -48 11 -7 5 -15 5 -18 2 -3 -3 -15 0
-27 6 -13 6 -5 -6 19 -31 56 -59 31 -51 -35 12 l-55 52 55 -57z m86 -13 c-6
17 -4 17 18 -4 26 -25 37 -17 14 9 -8 9 -5 8 7 -1 11 -9 27 -19 35 -22 15 -6
-21 -11 -49 -8 -8 2 -10 -2 -5 -10 4 -8 3 -10 -5 -5 -6 4 -8 12 -5 18 5 7 2 8
-5 4 -13 -8 -51 20 -51 37 0 6 12 0 27 -14 23 -21 25 -22 19 -4z"/>
<path d="M190 769 c-84 -8 -121 -14 -165 -29 -28 -9 -27 -9 10 -5 22 2 98 8
168 11 86 5 127 10 124 18 -4 13 -35 14 -137 5z"/>
<path d="M820 85 c0 -19 -4 -35 -9 -35 -4 0 -6 -11 -3 -25 4 -22 9 -25 41 -24
23 1 28 3 14 6 -21 4 -23 10 -23 59 0 30 -4 54 -10 54 -5 0 -10 -16 -10 -35z"/>
<path d="M896 111 c-3 -4 -3 -31 1 -60 6 -50 6 -51 40 -51 19 0 32 4 29 9 -3
5 -15 7 -25 4 -15 -4 -20 0 -18 16 1 15 8 21 25 21 14 0 21 4 16 11 -3 6 -17
8 -30 5 -19 -5 -24 -2 -24 14 0 16 7 20 30 20 17 0 30 5 30 10 0 12 -67 13
-74 1z"/>
<path d="M985 110 c-3 -5 1 -10 9 -10 12 0 16 -11 16 -44 0 -46 16 -69 31 -45
5 8 9 31 9 52 0 26 4 37 15 37 8 0 15 5 15 10 0 6 -20 10 -44 10 -25 0 -48 -4
-51 -10z"/>
<path d="M1120 111 c0 -5 9 -11 21 -14 18 -5 20 -12 17 -49 -2 -33 0 -43 12
-43 11 0 16 13 18 48 2 26 7 47 13 47 5 0 9 5 9 10 0 6 -20 10 -45 10 -25 0
-45 -4 -45 -9z"/>
<path d="M1232 63 c2 -34 8 -58 16 -61 7 -2 12 6 12 22 0 19 5 26 20 26 15 0
20 -7 20 -26 0 -14 4 -23 10 -19 13 8 13 115 1 115 -5 0 -11 -12 -13 -27 -2
-22 -8 -28 -28 -28 -21 0 -25 4 -22 28 2 15 -1 27 -8 27 -7 0 -10 -20 -8 -57z"/>
<path d="M1338 108 c-3 -7 -3 -34 0 -60 4 -47 5 -48 36 -47 23 1 25 3 9 6 -30
6 -32 43 -3 43 11 0 20 5 20 10 0 6 -11 8 -25 4 -21 -5 -25 -3 -25 15 0 16 6
21 24 21 14 0 28 5 31 10 4 6 -8 10 -28 10 -19 0 -37 -6 -39 -12z"/>
<path d="M1426 112 c-10 -16 6 -113 18 -109 6 2 10 14 9 26 -2 15 3 21 17 21
15 0 20 -7 20 -26 0 -16 5 -24 13 -22 17 6 21 37 7 62 -6 12 -10 29 -8 37 3
16 -66 27 -76 11z m64 -31 c0 -13 -7 -18 -25 -18 -18 0 -25 5 -25 18 0 14 7
19 25 19 18 0 25 -5 25 -19z"/>
<path d="M1536 103 c-2 -10 -2 -36 2 -58 7 -37 10 -40 42 -43 19 -2 31 0 27 5
-5 4 -16 8 -25 8 -25 0 -20 30 6 33 12 2 22 8 22 13 0 7 -12 8 -30 4 -26 -6
-30 -4 -30 14 0 17 6 21 30 21 17 0 30 5 30 10 0 6 -15 10 -34 10 -24 0 -36
-5 -40 -17z"/>
<path d="M1654 105 c-3 -7 -4 -32 -2 -56 3 -44 3 -44 46 -47 40 -3 42 -2 41
25 -3 70 -12 88 -47 90 -19 1 -35 -4 -38 -12z m56 -25 c0 -11 -7 -20 -15 -20
-8 0 -15 9 -15 20 0 11 7 20 15 20 8 0 15 -9 15 -20z m20 -50 c0 -15 -7 -20
-25 -20 -18 0 -25 5 -25 20 0 15 7 20 25 20 18 0 25 -5 25 -20z"/>
<path d="M1762 63 l3 -58 39 -3 c23 -2 36 1 32 6 -3 6 -15 8 -26 5 -15 -4 -20
0 -20 16 0 16 6 21 26 21 15 0 23 4 19 10 -4 6 -19 9 -33 8 -19 -2 -27 2 -27
12 0 10 12 16 33 18 46 5 40 22 -8 22 l-41 0 3 -57z"/>
<path d="M1874 106 c-3 -7 -4 -33 -2 -57 3 -43 4 -44 41 -47 33 -3 37 -1 36
20 -1 17 -3 18 -6 6 -3 -11 -14 -18 -29 -18 -22 0 -24 4 -24 45 0 32 4 45 14
45 8 0 17 -7 20 -16 8 -20 26 -9 26 17 0 15 -7 19 -35 19 -21 0 -38 -6 -41
-14z"/>
<path d="M1974 106 c-3 -7 -4 -33 -2 -57 3 -43 4 -44 39 -47 l37 -3 7 50 c4
28 4 55 0 61 -9 15 -75 12 -81 -4z m62 -37 c-3 -17 -6 -38 -6 -46 0 -10 -7
-13 -20 -9 -11 3 -20 8 -20 11 0 3 0 21 0 40 0 31 3 35 26 35 24 0 26 -3 20
-31z"/>
<path d="M2077 114 c-1 -1 0 -27 1 -58 l4 -56 34 0 c36 0 39 3 48 57 7 41 -15
64 -55 61 -17 -1 -31 -3 -32 -4z m68 -59 c0 -33 -3 -40 -20 -40 -15 0 -21 8
-23 28 -5 39 5 59 25 55 14 -2 18 -13 18 -43z"/>
<path d="M2184 106 c-3 -7 -4 -33 -2 -57 3 -44 3 -44 43 -45 24 -1 29 0 13 3
-38 6 -40 43 -2 43 15 0 23 4 18 11 -3 6 -17 8 -30 5 -19 -5 -24 -2 -24 14 0
16 7 20 30 20 17 0 30 5 30 10 0 16 -70 12 -76 -4z"/>
</g>
</svg>
